Armada-Compressed_Light.ufo
<glyph name="space" format="1">
  <advance width="59"/>
  <unicode hex="0020"/>
  <outline>
    <contour>
      <point x="2" y="0" type="move"/>
    </contour>
  </outline>
</glyph>
<glyph name="quotedbl" format="1">
  <advance width="113"/>
  <unicode hex="0022"/>
  <outline>
    <contour>
      <point x="98" y="487" type="line"/>
      <point x="70" y="487" type="line"/>
      <point x="70" y="720" type="line"/>
      <point x="98" y="720" type="line"/>
    </contour>
    <contour>
      <point x="44" y="487" type="line"/>
      <point x="15" y="487" type="line"/>
      <point x="15" y="720" type="line"/>
      <point x="44" y="720" type="line"/>
    </contour>
  </outline>
</glyph>
<glyph name="numbersign" format="1">
  <advance width="129"/>
  <unicode hex="0023"/>
  <outline>
    <contour>
      <point x="122" y="230" type="line"/>
      <point x="107" y="230" type="line"/>
      <point x="107" y="0" type="line"/>
      <point x="80" y="0" type="line"/>
      <point x="80" y="230" type="line"/>
      <point x="49" y="230" type="line"/>
      <point x="49" y="0" type="line"/>
      <point x="22" y="0" type="line"/>
      <point x="22" y="230" type="line"/>
      <point x="7" y="230" type="line"/>
      <point x="7" y="256" type="line"/>
      <point x="22" y="256" type="line"/>
      <point x="22" y="467" type="line"/>
      <point x="7" y="467" type="line"/>
      <point x="7" y="493" type="line"/>
      <point x="22" y="493" type="line"/>
      <point x="22" y="720" type="line"/>
      <point x="49" y="720" type="line"/>
      <point x="49" y="493" type="line"/>
      <point x="80" y="493" type="line"/>
      <point x="80" y="720" type="line"/>
      <point x="107" y="720" type="line"/>
      <point x="107" y="493" type="line"/>
      <point x="122" y="493" type="line"/>
      <point x="122" y="467" type="line"/>
      <point x="107" y="467" type="line"/>
      <point x="107" y="256" type="line"/>
      <point x="122" y="256" type="line"/>
    </contour>
    <contour>
      <point x="80" y="256" type="line"/>
      <point x="80" y="467" type="line"/>
      <point x="49" y="467" type="line"/>
      <point x="49" y="256" type="line"/>
    </contour>
  </outline>
</glyph>
<glyph name="dollar" format="1">
  <advance width="117"/>
  <unicode hex="0024"/>
  <outline>
    <contour>
      <point x="101" y="13" type="line"/>
      <point x="92" y="5"/>
      <point x="82" y="1"/>
      <point x="71" y="-1" type="curve"/>
      <point x="71" y="-65" type="line"/>
      <point x="46" y="-65" type="line"/>
      <point x="46" y="-1" type="line"/>
      <point x="35" y="1"/>
      <point x="25" y="5"/>
      <point x="16" y="13" type="curve"/>
      <point x="16" y="273" type="line"/>
      <point x="44" y="273" type="line"/>
      <point x="44" y="26" type="line"/>
      <point x="48" y="23"/>
      <point x="53" y="22"/>
      <point x="59" y="22" type="curve" smooth="yes"/>
      <point x="64" y="22"/>
      <point x="70" y="23"/>
      <point x="74" y="26" type="curve"/>
      <point x="74" y="285" type="line"/>
      <point x="16" y="445" type="line"/>
      <point x="16" y="707" type="line"/>
      <point x="25" y="715"/>
      <point x="35" y="719"/>
      <point x="46" y="721" type="curve"/>
      <point x="46" y="785" type="line"/>
      <point x="71" y="785" type="line"/>
      <point x="71" y="721" type="line"/>
      <point x="82" y="719"/>
      <point x="92" y="715"/>
      <point x="101" y="707" type="curve"/>
      <point x="101" y="447" type="line"/>
      <point x="74" y="447" type="line"/>
      <point x="74" y="694" type="line"/>
      <point x="69" y="697"/>
      <point x="64" y="698"/>
      <point x="59" y="698" type="curve" smooth="yes"/>
      <point x="53" y="698"/>
      <point x="48" y="697"/>
      <point x="44" y="694" type="curve"/>
      <point x="44" y="449" type="line"/>
      <point x="101" y="288" type="line"/>
    </contour>
  </outline>
</glyph>
<glyph name="ampersand" format="1">
  <advance width="121"/>
  <unicode hex="0026"/>
  <outline>
    <contour>
      <point x="115" y="356" type="line"/>
      <point x="101" y="356" type="line"/>
      <point x="101" y="11" type="line"/>
      <point x="89" y="0"/>
      <point x="74" y="-4"/>
      <point x="59" y="-4" type="curve" smooth="yes"/>
      <point x="43" y="-4"/>
      <point x="29" y="0"/>
      <point x="16" y="11" type="curve"/>
      <point x="16" y="348" type="line"/>
      <point x="23" y="357"/>
      <point x="33" y="364"/>
      <point x="44" y="368" type="curve"/>
      <point x="33" y="371"/>
      <point x="23" y="378"/>
      <point x="16" y="387" type="curve"/>
      <point x="16" y="709" type="line"/>
      <point x="29" y="720"/>
      <point x="43" y="724"/>
      <point x="59" y="724" type="curve" smooth="yes"/>
      <point x="74" y="724"/>
      <point x="89" y="720"/>
      <point x="101" y="709" type="curve"/>
      <point x="101" y="447" type="line"/>
      <point x="74" y="447" type="line"/>
      <point x="74" y="696" type="line"/>
      <point x="69" y="699"/>
      <point x="64" y="700"/>
      <point x="59" y="700" type="curve" smooth="yes"/>
      <point x="53" y="700"/>
      <point x="48" y="699"/>
      <point x="44" y="696" type="curve"/>
      <point x="44" y="394" type="line"/>
      <point x="52" y="383"/>
      <point x="62" y="380"/>
      <point x="71" y="380" type="curve" smooth="yes"/>
      <point x="115" y="380" type="line"/>
    </contour>
    <contour>
      <point x="74" y="24" type="curve"/>
      <point x="74" y="356" type="line"/>
      <point x="71" y="356" type="line" smooth="yes"/>
      <point x="62" y="356"/>
      <point x="52" y="354"/>
      <point x="44" y="343" type="curve"/>
      <point x="44" y="24" type="line"/>
      <point x="48" y="21"/>
      <point x="53" y="20"/>
      <point x="59" y="20" type="curve" smooth="yes"/>
      <point x="64" y="20"/>
      <point x="69" y="21"/>
    </contour>
  </outline>
</glyph>
<glyph name="quotesingle" format="1">
  <advance width="59"/>
  <unicode hex="0027"/>
  <outline>
    <contour>
      <point x="44" y="487" type="line"/>
      <point x="15" y="487" type="line"/>
      <point x="15" y="720" type="line"/>
      <point x="44" y="720" type="line"/>
    </contour>
  </outline>
</glyph>
<glyph name="parenleft" format="1">
  <advance width="83"/>
  <unicode hex="0028"/>
  <outline>
    <contour>
      <point x="74" y="-2" type="line"/>
      <point x="46" y="-2"/>
      <point x="28" y="6"/>
      <point x="16" y="24" type="curve"/>
      <point x="16" y="696" type="line"/>
      <point x="28" y="714"/>
      <point x="46" y="722"/>
      <point x="74" y="722" type="curve"/>
      <point x="74" y="695" type="line"/>
      <point x="61" y="695"/>
      <point x="51" y="693"/>
      <point x="44" y="684" type="curve"/>
      <point x="44" y="36" type="line"/>
      <point x="51" y="27"/>
      <point x="61" y="25"/>
      <point x="74" y="25" type="curve"/>
    </contour>
  </outline>
</glyph>
<glyph name="parenright" format="1">
  <advance width="83"/>
  <unicode hex="0029"/>
  <outline>
    <contour>
      <point x="67" y="24" type="line"/>
      <point x="55" y="6"/>
      <point x="37" y="-2"/>
      <point x="9" y="-2" type="curve"/>
      <point x="9" y="25" type="line"/>
      <point x="22" y="25"/>
      <point x="32" y="27"/>
      <point x="39" y="36" type="curve"/>
      <point x="39" y="684" type="line"/>
      <point x="32" y="693"/>
      <point x="22" y="695"/>
      <point x="9" y="695" type="curve"/>
      <point x="9" y="722" type="line"/>
      <point x="37" y="722"/>
      <point x="55" y="714"/>
      <point x="67" y="696" type="curve"/>
    </contour>
  </outline>
</glyph>
<glyph name="asterisk" format="1">
  <advance width="136"/>
  <unicode hex="002A"/>
  <outline>
    <contour>
      <point x="122" y="374" type="line"/>
      <point x="99" y="374" type="line"/>
      <point x="99" y="491" type="line"/>
      <point x="94" y="497"/>
      <point x="87" y="501"/>
      <point x="80" y="503" type="curve"/>
      <point x="80" y="313" type="line"/>
      <point x="57" y="313" type="line"/>
      <point x="57" y="504" type="line"/>
      <point x="49" y="501"/>
      <point x="42" y="497"/>
      <point x="38" y="491" type="curve"/>
      <point x="38" y="374" type="line"/>
      <point x="15" y="374" type="line"/>
      <point x="15" y="496" type="line"/>
      <point x="21" y="503"/>
      <point x="32" y="512"/>
      <point x="46" y="517" type="curve"/>
      <point x="32" y="521"/>
      <point x="21" y="530"/>
      <point x="15" y="538" type="curve"/>
      <point x="15" y="660" type="line"/>
      <point x="38" y="660" type="line"/>
      <point x="38" y="543" type="line"/>
      <point x="42" y="537"/>
      <point x="49" y="532"/>
      <point x="57" y="530" type="curve"/>
      <point x="57" y="721" type="line"/>
      <point x="80" y="721" type="line"/>
      <point x="80" y="530" type="line"/>
      <point x="87" y="532"/>
      <point x="94" y="537"/>
      <point x="99" y="543" type="curve"/>
      <point x="99" y="660" type="line"/>
      <point x="122" y="660" type="line"/>
      <point x="122" y="538" type="line"/>
      <point x="116" y="530"/>
      <point x="105" y="521"/>
      <point x="90" y="517" type="curve"/>
      <point x="105" y="512"/>
      <point x="116" y="503"/>
      <point x="122" y="496" type="curve"/>
    </contour>
  </outline>
</glyph>
<glyph name="plus" format="1">
  <advance width="92"/>
  <unicode hex="002B"/>
  <outline>
    <contour>
      <point x="86" y="360" type="line"/>
      <point x="59" y="360" type="line"/>
      <point x="59" y="236" type="line"/>
      <point x="33" y="236" type="line"/>
      <point x="33" y="360" type="line"/>
      <point x="6" y="360" type="line"/>
      <point x="6" y="385" type="line"/>
      <point x="33" y="385" type="line"/>
      <point x="33" y="506" type="line"/>
      <point x="59" y="506" type="line"/>
      <point x="59" y="385" type="line"/>
      <point x="86" y="385" type="line"/>
    </contour>
  </outline>
</glyph>
<glyph name="comma" format="1">
  <advance width="59"/>
  <unicode hex="002C"/>
  <outline>
    <contour>
      <point x="48" y="99" type="line"/>
      <point x="34" y="-55" type="line"/>
      <point x="5" y="-55" type="line"/>
      <point x="19" y="99" type="line"/>
    </contour>
  </outline>
</glyph>
<glyph name="hyphen" format="1">
  <advance width="62"/>
  <unicode hex="002D"/>
  <unicode hex="2010"/>
  <unicode hex="2011"/>
  <outline>
    <contour>
      <point x="55" y="305" type="line"/>
      <point x="6" y="305" type="line"/>
      <point x="6" y="332" type="line"/>
      <point x="55" y="332" type="line"/>
    </contour>
  </outline>
</glyph>
<glyph name="period" format="1">
  <advance width="59"/>
  <unicode hex="002E"/>
  <outline>
    <contour>
      <point x="44" y="0" type="line"/>
      <point x="15" y="0" type="line"/>
      <point x="15" y="99" type="line"/>
      <point x="44" y="99" type="line"/>
    </contour>
  </outline>
</glyph>
<glyph name="one" format="1">
  <advance width="86"/>
  <unicode hex="0031"/>
  <outline>
    <contour>
      <point x="81" y="0" type="line"/>
      <point x="8" y="0" type="line"/>
      <point x="8" y="26" type="line"/>
      <point x="31" y="26" type="line"/>
      <point x="31" y="694" type="line"/>
      <point x="8" y="694" type="line"/>
      <point x="8" y="720" type="line"/>
      <point x="58" y="720" type="line"/>
      <point x="58" y="26" type="line"/>
      <point x="81" y="26" type="line"/>
    </contour>
  </outline>
</glyph>
<glyph name="two" format="1">
  <advance width="116"/>
  <unicode hex="0032"/>
  <outline>
    <contour>
      <point x="101" y="0" type="line"/>
      <point x="15" y="0" type="line"/>
      <point x="15" y="22" type="line"/>
      <point x="73" y="441" type="line"/>
      <point x="73" y="696" type="line"/>
      <point x="69" y="699"/>
      <point x="64" y="700"/>
      <point x="58" y="700" type="curve" smooth="yes"/>
      <point x="53" y="700"/>
      <point x="48" y="699"/>
      <point x="43" y="696" type="curve"/>
      <point x="43" y="447" type="line"/>
      <point x="15" y="447" type="line"/>
      <point x="15" y="709" type="line"/>
      <point x="28" y="720"/>
      <point x="43" y="724"/>
      <point x="58" y="724" type="curve" smooth="yes"/>
      <point x="74" y="724"/>
      <point x="88" y="720"/>
      <point x="101" y="709" type="curve"/>
      <point x="101" y="449" type="line"/>
      <point x="43" y="24" type="line"/>
      <point x="43" y="24" type="line"/>
      <point x="101" y="24" type="line"/>
    </contour>
  </outline>
</glyph>
<glyph name="four" format="1">
  <advance width="117"/>
  <unicode hex="0034"/>
  <outline>
    <contour>
      <point x="101" y="0" type="line"/>
      <point x="74" y="0" type="line"/>
      <point x="74" y="232" type="line"/>
      <point x="16" y="232" type="line"/>
      <point x="16" y="720" type="line"/>
      <point x="44" y="720" type="line"/>
      <point x="44" y="258" type="line"/>
      <point x="74" y="258" type="line"/>
      <point x="74" y="720" type="line"/>
      <point x="101" y="720" type="line"/>
    </contour>
  </outline>
</glyph>
<glyph name="five" format="1">
  <advance width="117"/>
  <unicode hex="0035"/>
  <outline>
    <contour>
      <point x="105" y="694" type="line"/>
      <point x="44" y="694" type="line"/>
      <point x="44" y="397" type="line"/>
      <point x="65" y="397" type="line" smooth="yes"/>
      <point x="81" y="397"/>
      <point x="93" y="392"/>
      <point x="101" y="383" type="curve"/>
      <point x="101" y="11" type="line"/>
      <point x="89" y="0"/>
      <point x="74" y="-4"/>
      <point x="59" y="-4" type="curve" smooth="yes"/>
      <point x="43" y="-4"/>
      <point x="29" y="0"/>
      <point x="16" y="11" type="curve"/>
      <point x="16" y="273" type="line"/>
      <point x="44" y="273" type="line"/>
      <point x="44" y="24" type="line"/>
      <point x="48" y="21"/>
      <point x="53" y="20"/>
      <point x="59" y="20" type="curve" smooth="yes"/>
      <point x="64" y="20"/>
      <point x="69" y="21"/>
      <point x="74" y="24" type="curve"/>
      <point x="74" y="369" type="line"/>
      <point x="70" y="372"/>
      <point x="65" y="373"/>
      <point x="59" y="373" type="curve" smooth="yes"/>
      <point x="16" y="373" type="line"/>
      <point x="16" y="720" type="line"/>
      <point x="105" y="720" type="line"/>
    </contour>
  </outline>
</glyph>
<glyph name="seven" format="1">
  <advance width="93"/>
  <unicode hex="0037"/>
  <outline>
    <contour>
      <point x="81" y="699" type="line"/>
      <point x="53" y="0" type="line"/>
      <point x="26" y="0" type="line"/>
      <point x="55" y="697" type="line"/>
      <point x="5" y="697" type="line"/>
      <point x="5" y="720" type="line"/>
      <point x="81" y="720" type="line"/>
    </contour>
  </outline>
</glyph>
<glyph name="eight" format="1">
  <advance width="117"/>
  <unicode hex="0038"/>
  <outline>
    <contour>
      <point x="101" y="11" type="line"/>
      <point x="89" y="0"/>
      <point x="74" y="-4"/>
      <point x="59" y="-4" type="curve" smooth="yes"/>
      <point x="43" y="-4"/>
      <point x="29" y="0"/>
      <point x="16" y="11" type="curve"/>
      <point x="16" y="352" type="line"/>
      <point x="23" y="359"/>
      <point x="30" y="364"/>
      <point x="40" y="367" type="curve"/>
      <point x="30" y="371"/>
      <point x="22" y="376"/>
      <point x="16" y="383" type="curve"/>
      <point x="16" y="709" type="line"/>
      <point x="29" y="720"/>
      <point x="43" y="724"/>
      <point x="59" y="724" type="curve" smooth="yes"/>
      <point x="74" y="724"/>
      <point x="89" y="720"/>
      <point x="101" y="709" type="curve"/>
      <point x="101" y="383" type="line"/>
      <point x="95" y="376"/>
      <point x="87" y="371"/>
      <point x="78" y="367" type="curve"/>
      <point x="87" y="364"/>
      <point x="95" y="359"/>
      <point x="101" y="352" type="curve"/>
    </contour>
    <contour>
      <point x="74" y="386" type="curve"/>
      <point x="74" y="696" type="line"/>
      <point x="69" y="699"/>
      <point x="64" y="700"/>
      <point x="59" y="700" type="curve" smooth="yes"/>
      <point x="53" y="700"/>
      <point x="48" y="699"/>
      <point x="44" y="696" type="curve"/>
      <point x="44" y="386" type="line"/>
      <point x="48" y="382"/>
      <point x="53" y="380"/>
      <point x="59" y="380" type="curve" smooth="yes"/>
      <point x="65" y="380"/>
      <point x="70" y="382"/>
    </contour>
    <contour>
      <point x="74" y="24" type="curve"/>
      <point x="74" y="350" type="line"/>
      <point x="70" y="354"/>
      <point x="65" y="356"/>
      <point x="59" y="356" type="curve" smooth="yes"/>
      <point x="53" y="356"/>
      <point x="48" y="354"/>
      <point x="44" y="350" type="curve"/>
      <point x="44" y="24" type="line"/>
      <point x="48" y="21"/>
      <point x="53" y="20"/>
      <point x="59" y="20" type="curve" smooth="yes"/>
      <point x="64" y="20"/>
      <point x="69" y="21"/>
    </contour>
  </outline>
</glyph>
<glyph name="nine" format="1">
  <advance width="117"/>
  <unicode hex="0039"/>
  <outline>
    <contour>
      <point x="101" y="11" type="line"/>
      <point x="89" y="0"/>
      <point x="74" y="-4"/>
      <point x="59" y="-4" type="curve" smooth="yes"/>
      <point x="43" y="-4"/>
      <point x="29" y="0"/>
      <point x="16" y="11" type="curve"/>
      <point x="16" y="273" type="line"/>
      <point x="44" y="273" type="line"/>
      <point x="44" y="24" type="line"/>
      <point x="48" y="21"/>
      <point x="53" y="20"/>
      <point x="59" y="20" type="curve" smooth="yes"/>
      <point x="64" y="20"/>
      <point x="69" y="21"/>
      <point x="74" y="24" type="curve"/>
      <point x="74" y="339" type="line"/>
      <point x="68" y="336"/>
      <point x="61" y="335"/>
      <point x="52" y="335" type="curve" smooth="yes"/>
      <point x="38" y="335"/>
      <point x="26" y="338"/>
      <point x="16" y="348" type="curve"/>
      <point x="16" y="709" type="line"/>
      <point x="29" y="720"/>
      <point x="43" y="724"/>
      <point x="59" y="724" type="curve" smooth="yes"/>
      <point x="74" y="724"/>
      <point x="89" y="720"/>
      <point x="101" y="709" type="curve"/>
    </contour>
    <contour>
      <point x="74" y="363" type="curve"/>
      <point x="74" y="696" type="line"/>
      <point x="69" y="699"/>
      <point x="64" y="700"/>
      <point x="59" y="700" type="curve" smooth="yes"/>
      <point x="53" y="700"/>
      <point x="48" y="699"/>
      <point x="44" y="696" type="curve"/>
      <point x="44" y="363" type="line"/>
      <point x="48" y="360"/>
      <point x="53" y="359"/>
      <point x="59" y="359" type="curve" smooth="yes"/>
      <point x="64" y="359"/>
      <point x="69" y="360"/>
    </contour>
  </outline>
</glyph>
<glyph name="colon" format="1">
  <advance width="59"/>
  <unicode hex="003A"/>
  <outline>
    <contour>
      <point x="44" y="381" type="line"/>
      <point x="15" y="381" type="line"/>
      <point x="15" y="480" type="line"/>
      <point x="44" y="480" type="line"/>
    </contour>
    <contour>
      <point x="44" y="0" type="line"/>
      <point x="15" y="0" type="line"/>
      <point x="15" y="99" type="line"/>
      <point x="44" y="99" type="line"/>
    </contour>
  </outline>
</glyph>
<glyph name="semicolon" format="1">
  <advance width="59"/>
  <unicode hex="003B"/>
  <outline>
    <contour>
      <point x="44" y="381" type="line"/>
      <point x="15" y="381" type="line"/>
      <point x="15" y="480" type="line"/>
      <point x="44" y="480" type="line"/>
    </contour>
    <contour>
      <point x="48" y="99" type="line"/>
      <point x="34" y="-55" type="line"/>
      <point x="5" y="-55" type="line"/>
      <point x="19" y="99" type="line"/>
    </contour>
  </outline>
</glyph>
<glyph name="less" format="1">
  <advance width="73"/>
  <unicode hex="003C"/>
  <outline>
    <contour>
      <point x="66" y="190" type="line"/>
      <point x="5" y="348" type="line"/>
      <point x="5" y="386" type="line"/>
      <point x="66" y="543" type="line"/>
      <point x="66" y="487" type="line"/>
      <point x="23" y="367" type="line"/>
      <point x="66" y="248" type="line"/>
    </contour>
  </outline>
</glyph>
<glyph name="equal" format="1">
  <advance width="73"/>
  <unicode hex="003D"/>
  <outline>
    <contour>
      <point x="67" y="395" type="line"/>
      <point x="6" y="395" type="line"/>
      <point x="6" y="421" type="line"/>
      <point x="67" y="421" type="line"/>
    </contour>
    <contour>
      <point x="67" y="321" type="line"/>
      <point x="6" y="321" type="line"/>
      <point x="6" y="348" type="line"/>
      <point x="67" y="348" type="line"/>
    </contour>
  </outline>
</glyph>
<glyph name="greater" format="1">
  <advance width="73"/>
  <unicode hex="003E"/>
  <outline>
    <contour>
      <point x="68" y="348" type="line"/>
      <point x="7" y="190" type="line"/>
      <point x="7" y="248" type="line"/>
      <point x="51" y="367" type="line"/>
      <point x="7" y="487" type="line"/>
      <point x="7" y="543" type="line"/>
      <point x="68" y="386" type="line"/>
    </contour>
  </outline>
</glyph>
<glyph name="question" format="1">
  <advance width="114"/>
  <unicode hex="003F"/>
  <outline>
    <contour>
      <point x="100" y="449" type="line"/>
      <point x="71" y="310" type="line"/>
      <point x="71" y="144" type="line"/>
      <point x="43" y="144" type="line"/>
      <point x="43" y="306" type="line"/>
      <point x="72" y="443" type="line"/>
      <point x="72" y="696" type="line"/>
      <point x="68" y="699"/>
      <point x="63" y="700"/>
      <point x="57" y="700" type="curve" smooth="yes"/>
      <point x="52" y="700"/>
      <point x="47" y="699"/>
      <point x="42" y="696" type="curve"/>
      <point x="42" y="447" type="line"/>
      <point x="14" y="447" type="line"/>
      <point x="14" y="709" type="line"/>
      <point x="27" y="720"/>
      <point x="42" y="724"/>
      <point x="57" y="724" type="curve" smooth="yes"/>
      <point x="73" y="724"/>
      <point x="87" y="720"/>
      <point x="100" y="709" type="curve"/>
    </contour>
    <contour>
      <point x="71" y="0" type="line"/>
      <point x="43" y="0" type="line"/>
      <point x="43" y="99" type="line"/>
      <point x="71" y="99" type="line"/>
    </contour>
  </outline>
</glyph>
<glyph name="at" format="1">
  <advance width="237"/>
  <unicode hex="0040"/>
  <outline>
    <contour>
      <point x="221" y="28" type="line"/>
      <point x="192" y="5"/>
      <point x="158" y="-4"/>
      <point x="119" y="-4" type="curve" smooth="yes"/>
      <point x="80" y="-4"/>
      <point x="45" y="5"/>
      <point x="16" y="28" type="curve"/>
      <point x="16" y="692" type="line"/>
      <point x="45" y="715"/>
      <point x="80" y="724"/>
      <point x="119" y="724" type="curve" smooth="yes"/>
      <point x="158" y="724"/>
      <point x="192" y="715"/>
      <point x="221" y="692" type="curve"/>
      <point x="221" y="352" type="line"/>
      <point x="162" y="352" type="line"/>
      <point x="162" y="66" type="line"/>
      <point x="150" y="59"/>
      <point x="134" y="55"/>
      <point x="119" y="55" type="curve" smooth="yes"/>
      <point x="103" y="55"/>
      <point x="87" y="59"/>
      <point x="76" y="66" type="curve"/>
      <point x="76" y="654" type="line"/>
      <point x="87" y="661"/>
      <point x="103" y="665"/>
      <point x="119" y="665" type="curve" smooth="yes"/>
      <point x="134" y="665"/>
      <point x="150" y="661"/>
      <point x="162" y="654" type="curve"/>
      <point x="162" y="378" type="line"/>
      <point x="194" y="378" type="line"/>
      <point x="194" y="678" type="line"/>
      <point x="169" y="693"/>
      <point x="146" y="698"/>
      <point x="119" y="698" type="curve" smooth="yes"/>
      <point x="92" y="698"/>
      <point x="68" y="693"/>
      <point x="44" y="678" type="curve"/>
      <point x="44" y="42" type="line"/>
      <point x="68" y="27"/>
      <point x="92" y="22"/>
      <point x="119" y="22" type="curve" smooth="yes"/>
      <point x="146" y="22"/>
      <point x="169" y="27"/>
      <point x="194" y="42" type="curve"/>
      <point x="194" y="273" type="line"/>
      <point x="221" y="273" type="line"/>
    </contour>
    <contour>
      <point x="135" y="81" type="curve"/>
      <point x="135" y="639" type="line"/>
      <point x="130" y="642"/>
      <point x="125" y="643"/>
      <point x="119" y="643" type="curve" smooth="yes"/>
      <point x="112" y="643"/>
      <point x="107" y="642"/>
      <point x="103" y="639" type="curve"/>
      <point x="103" y="81" type="line"/>
      <point x="107" y="78"/>
      <point x="112" y="77"/>
      <point x="119" y="77" type="curve" smooth="yes"/>
      <point x="125" y="77"/>
      <point x="130" y="78"/>
    </contour>
  </outline>
</glyph>
<glyph name="A" format="1">
  <advance width="117"/>
  <unicode hex="0041"/>
  <outline>
    <contour>
      <point x="101" y="0" type="line"/>
      <point x="74" y="0" type="line"/>
      <point x="74" y="357" type="line"/>
      <point x="44" y="357" type="line"/>
      <point x="44" y="0" type="line"/>
      <point x="16" y="0" type="line"/>
      <point x="16" y="709" type="line"/>
      <point x="29" y="720"/>
      <point x="43" y="724"/>
      <point x="59" y="724" type="curve" smooth="yes"/>
      <point x="74" y="724"/>
      <point x="89" y="720"/>
      <point x="101" y="709" type="curve"/>
    </contour>
    <contour>
      <point x="74" y="384" type="line"/>
      <point x="74" y="696" type="line"/>
      <point x="69" y="699"/>
      <point x="64" y="700"/>
      <point x="59" y="700" type="curve" smooth="yes"/>
      <point x="53" y="700"/>
      <point x="48" y="699"/>
      <point x="44" y="696" type="curve"/>
      <point x="44" y="384" type="line"/>
    </contour>
  </outline>
</glyph>
<glyph name="B" format="1">
  <advance width="116"/>
  <unicode hex="0042"/>
  <outline>
    <contour>
      <point x="101" y="24" type="line"/>
      <point x="88" y="6"/>
      <point x="70" y="0"/>
      <point x="49" y="0" type="curve" smooth="yes"/>
      <point x="16" y="0" type="line"/>
      <point x="16" y="720" type="line"/>
      <point x="48" y="720" type="line" smooth="yes"/>
      <point x="70" y="720"/>
      <point x="88" y="714"/>
      <point x="101" y="696" type="curve"/>
      <point x="101" y="391" type="line"/>
      <point x="94" y="382"/>
      <point x="85" y="375"/>
      <point x="74" y="372" type="curve"/>
      <point x="85" y="368"/>
      <point x="94" y="361"/>
      <point x="101" y="352" type="curve"/>
    </contour>
    <contour>
      <point x="73" y="397" type="curve"/>
      <point x="73" y="686" type="line"/>
      <point x="68" y="693"/>
      <point x="59" y="696"/>
      <point x="48" y="696" type="curve" smooth="yes"/>
      <point x="44" y="696" type="line"/>
      <point x="44" y="383" type="line"/>
      <point x="47" y="383" type="line" smooth="yes"/>
      <point x="57" y="383"/>
      <point x="67" y="388"/>
    </contour>
    <contour>
      <point x="74" y="34" type="curve"/>
      <point x="74" y="346" type="line"/>
      <point x="67" y="355"/>
      <point x="57" y="359"/>
      <point x="47" y="359" type="curve" smooth="yes"/>
      <point x="44" y="359" type="line"/>
      <point x="44" y="24" type="line"/>
      <point x="48" y="24" type="line" smooth="yes"/>
      <point x="59" y="24"/>
      <point x="69" y="27"/>
    </contour>
  </outline>
</glyph>
<glyph name="H" format="1">
  <advance width="117"/>
  <unicode hex="0048"/>
  <outline>
    <contour>
      <point x="101" y="0" type="line"/>
      <point x="74" y="0" type="line"/>
      <point x="74" y="357" type="line"/>
      <point x="44" y="357" type="line"/>
      <point x="44" y="0" type="line"/>
      <point x="16" y="0" type="line"/>
      <point x="16" y="720" type="line"/>
      <point x="44" y="720" type="line"/>
      <point x="44" y="384" type="line"/>
      <point x="74" y="384" type="line"/>
      <point x="74" y="720" type="line"/>
      <point x="101" y="720" type="line"/>
    </contour>
  </outline>
</glyph>
<glyph name="J" format="1">
  <advance width="87"/>
  <unicode hex="004A"/>
  <outline>
    <contour>
      <point x="71" y="18" type="line"/>
      <point x="58" y="4"/>
      <point x="45" y="0"/>
      <point x="25" y="0" type="curve" smooth="yes"/>
      <point x="6" y="0" type="line"/>
      <point x="6" y="24" type="line"/>
      <point x="25" y="24" type="line" smooth="yes"/>
      <point x="32" y="24"/>
      <point x="39" y="25"/>
      <point x="44" y="31" type="curve"/>
      <point x="44" y="720" type="line"/>
      <point x="71" y="720" type="line"/>
    </contour>
  </outline>
</glyph>
<glyph name="K" format="1">
  <advance width="116"/>
  <unicode hex="004B"/>
  <outline>
    <contour>
      <point x="101" y="0" type="line"/>
      <point x="74" y="0" type="line"/>
      <point x="74" y="346" type="line"/>
      <point x="67" y="355"/>
      <point x="57" y="359"/>
      <point x="47" y="359" type="curve" smooth="yes"/>
      <point x="44" y="359" type="line"/>
      <point x="44" y="0" type="line"/>
      <point x="16" y="0" type="line"/>
      <point x="16" y="720" type="line"/>
      <point x="44" y="720" type="line"/>
      <point x="44" y="383" type="line"/>
      <point x="47" y="383" type="line" smooth="yes"/>
      <point x="57" y="383"/>
      <point x="67" y="388"/>
      <point x="73" y="397" type="curve"/>
      <point x="73" y="720" type="line"/>
      <point x="101" y="720" type="line"/>
      <point x="101" y="391" type="line"/>
      <point x="94" y="382"/>
      <point x="85" y="375"/>
      <point x="74" y="372" type="curve"/>
      <point x="85" y="368"/>
      <point x="94" y="361"/>
      <point x="101" y="352" type="curve"/>
    </contour>
  </outline>
</glyph>
<glyph name="L" format="1">
  <advance width="87"/>
  <unicode hex="004C"/>
  <outline>
    <contour>
      <point x="80" y="0" type="line"/>
      <point x="16" y="0" type="line"/>
      <point x="16" y="720" type="line"/>
      <point x="44" y="720" type="line"/>
      <point x="44" y="24" type="line"/>
      <point x="80" y="24" type="line"/>
    </contour>
  </outline>
</glyph>
<glyph name="M" format="1">
  <advance width="174"/>
  <unicode hex="004D"/>
  <outline>
    <contour>
      <point x="159" y="0" type="line"/>
      <point x="131" y="0" type="line"/>
      <point x="131" y="694" type="line"/>
      <point x="123" y="698"/>
      <point x="113" y="700"/>
      <point x="101" y="700" type="curve"/>
      <point x="101" y="0" type="line"/>
      <point x="74" y="0" type="line"/>
      <point x="74" y="700" type="line"/>
      <point x="62" y="700"/>
      <point x="52" y="698"/>
      <point x="44" y="694" type="curve"/>
      <point x="44" y="0" type="line"/>
      <point x="16" y="0" type="line"/>
      <point x="16" y="708" type="line"/>
      <point x="36" y="719"/>
      <point x="61" y="724"/>
      <point x="88" y="724" type="curve" smooth="yes"/>
      <point x="115" y="724"/>
      <point x="140" y="719"/>
      <point x="159" y="708" type="curve"/>
    </contour>
  </outline>
</glyph>
<glyph name="O" format="1">
  <advance width="117"/>
  <unicode hex="004F"/>
  <outline>
    <contour>
      <point x="101" y="11" type="line"/>
      <point x="89" y="0"/>
      <point x="74" y="-4"/>
      <point x="59" y="-4" type="curve" smooth="yes"/>
      <point x="43" y="-4"/>
      <point x="29" y="0"/>
      <point x="16" y="11" type="curve"/>
      <point x="16" y="709" type="line"/>
      <point x="29" y="720"/>
      <point x="43" y="724"/>
      <point x="59" y="724" type="curve" smooth="yes"/>
      <point x="74" y="724"/>
      <point x="89" y="720"/>
      <point x="101" y="709" type="curve"/>
    </contour>
    <contour>
      <point x="74" y="24" type="curve"/>
      <point x="74" y="696" type="line"/>
      <point x="69" y="699"/>
      <point x="64" y="700"/>
      <point x="59" y="700" type="curve" smooth="yes"/>
      <point x="53" y="700"/>
      <point x="48" y="699"/>
      <point x="44" y="696" type="curve"/>
      <point x="44" y="24" type="line"/>
      <point x="48" y="21"/>
      <point x="53" y="20"/>
      <point x="59" y="20" type="curve" smooth="yes"/>
      <point x="64" y="20"/>
      <point x="69" y="21"/>
    </contour>
  </outline>
</glyph>
<glyph name="P" format="1">
  <advance width="115"/>
  <unicode hex="0050"/>
  <outline>
    <contour>
      <point x="101" y="371" type="line"/>
      <point x="88" y="353"/>
      <point x="70" y="346"/>
      <point x="49" y="346" type="curve" smooth="yes"/>
      <point x="44" y="346" type="line"/>
      <point x="44" y="0" type="line"/>
      <point x="16" y="0" type="line"/>
      <point x="16" y="720" type="line"/>
      <point x="49" y="720" type="line" smooth="yes"/>
      <point x="70" y="720"/>
      <point x="88" y="713"/>
      <point x="101" y="695" type="curve"/>
    </contour>
    <contour>
      <point x="74" y="381" type="curve"/>
      <point x="74" y="685" type="line"/>
      <point x="69" y="692"/>
      <point x="59" y="696"/>
      <point x="48" y="696" type="curve" smooth="yes"/>
      <point x="44" y="696" type="line"/>
      <point x="44" y="370" type="line"/>
      <point x="48" y="370" type="line" smooth="yes"/>
      <point x="60" y="370"/>
      <point x="69" y="374"/>
    </contour>
  </outline>
</glyph>
<glyph name="Q" format="1">
  <advance width="117"/>
  <unicode hex="0051"/>
  <outline>
    <contour>
      <point x="101" y="11" type="line"/>
      <point x="92" y="3"/>
      <point x="82" y="-1"/>
      <point x="71" y="-3" type="curve"/>
      <point x="71" y="-65" type="line"/>
      <point x="46" y="-65" type="line"/>
      <point x="46" y="-3" type="line"/>
      <point x="35" y="-1"/>
      <point x="25" y="3"/>
      <point x="16" y="11" type="curve"/>
      <point x="16" y="709" type="line"/>
      <point x="29" y="720"/>
      <point x="43" y="724"/>
      <point x="59" y="724" type="curve" smooth="yes"/>
      <point x="74" y="724"/>
      <point x="89" y="720"/>
      <point x="101" y="709" type="curve"/>
    </contour>
    <contour>
      <point x="74" y="24" type="curve"/>
      <point x="74" y="696" type="line"/>
      <point x="69" y="699"/>
      <point x="64" y="700"/>
      <point x="59" y="700" type="curve" smooth="yes"/>
      <point x="53" y="700"/>
      <point x="48" y="699"/>
      <point x="44" y="696" type="curve"/>
      <point x="44" y="24" type="line"/>
      <point x="48" y="21"/>
      <point x="53" y="20"/>
      <point x="59" y="20" type="curve" smooth="yes"/>
      <point x="64" y="20"/>
      <point x="69" y="21"/>
    </contour>
  </outline>
</glyph>
<glyph name="T" format="1">
  <advance width="91"/>
  <unicode hex="0054"/>
  <outline>
    <contour>
      <point x="86" y="696" type="line"/>
      <point x="59" y="696" type="line"/>
      <point x="59" y="0" type="line"/>
      <point x="32" y="0" type="line"/>
      <point x="32" y="696" type="line"/>
      <point x="5" y="696" type="line"/>
      <point x="5" y="720" type="line"/>
      <point x="86" y="720" type="line"/>
    </contour>
  </outline>
</glyph>
<glyph name="U" format="1">
  <advance width="117"/>
  <unicode hex="0055"/>
  <outline>
    <contour>
      <point x="101" y="11" type="line"/>
      <point x="89" y="0"/>
      <point x="74" y="-4"/>
      <point x="59" y="-4" type="curve" smooth="yes"/>
      <point x="43" y="-4"/>
      <point x="29" y="0"/>
      <point x="16" y="11" type="curve"/>
      <point x="16" y="720" type="line"/>
      <point x="44" y="720" type="line"/>
      <point x="44" y="24" type="line"/>
      <point x="48" y="21"/>
      <point x="53" y="20"/>
      <point x="59" y="20" type="curve" smooth="yes"/>
      <point x="64" y="20"/>
      <point x="69" y="21"/>
      <point x="74" y="24" type="curve"/>
      <point x="74" y="720" type="line"/>
      <point x="101" y="720" type="line"/>
    </contour>
  </outline>
</glyph>
<glyph name="V" format="1">
  <advance width="117"/>
  <unicode hex="0056"/>
  <outline>
    <contour>
      <point x="101" y="332" type="line" smooth="yes"/>
      <point x="101" y="125"/>
      <point x="90" y="73"/>
      <point x="71" y="0" type="curve"/>
      <point x="46" y="0" type="line"/>
      <point x="27" y="73"/>
      <point x="16" y="125"/>
      <point x="16" y="332" type="curve" smooth="yes"/>
      <point x="16" y="720" type="line"/>
      <point x="44" y="720" type="line"/>
      <point x="44" y="332" type="line" smooth="yes"/>
      <point x="44" y="150"/>
      <point x="50" y="96"/>
      <point x="59" y="47" type="curve"/>
      <point x="67" y="96"/>
      <point x="74" y="150"/>
      <point x="74" y="332" type="curve" smooth="yes"/>
      <point x="74" y="720" type="line"/>
      <point x="101" y="720" type="line"/>
    </contour>
  </outline>
</glyph>
<glyph name="W" format="1">
  <advance width="174"/>
  <unicode hex="0057"/>
  <outline>
    <contour>
      <point x="159" y="12" type="line"/>
      <point x="140" y="1"/>
      <point x="115" y="-4"/>
      <point x="88" y="-4" type="curve" smooth="yes"/>
      <point x="61" y="-4"/>
      <point x="36" y="1"/>
      <point x="16" y="12" type="curve"/>
      <point x="16" y="720" type="line"/>
      <point x="44" y="720" type="line"/>
      <point x="44" y="26" type="line"/>
      <point x="52" y="22"/>
      <point x="62" y="20"/>
      <point x="74" y="20" type="curve"/>
      <point x="74" y="720" type="line"/>
      <point x="101" y="720" type="line"/>
      <point x="101" y="20" type="line"/>
      <point x="113" y="20"/>
      <point x="123" y="22"/>
      <point x="131" y="26" type="curve"/>
      <point x="131" y="720" type="line"/>
      <point x="159" y="720" type="line"/>
    </contour>
  </outline>
</glyph>
<glyph name="X" format="1">
  <advance width="116"/>
  <unicode hex="0058"/>
  <outline>
    <contour>
      <point x="101" y="0" type="line"/>
      <point x="74" y="0" type="line"/>
      <point x="74" y="352" type="line"/>
      <point x="70" y="356"/>
      <point x="65" y="358"/>
      <point x="59" y="358" type="curve" smooth="yes"/>
      <point x="53" y="358"/>
      <point x="48" y="356"/>
      <point x="44" y="352" type="curve"/>
      <point x="44" y="0" type="line"/>
      <point x="16" y="0" type="line"/>
      <point x="16" y="355" type="line"/>
      <point x="23" y="362"/>
      <point x="30" y="368"/>
      <point x="40" y="371" type="curve"/>
      <point x="30" y="375"/>
      <point x="23" y="380"/>
      <point x="16" y="387" type="curve"/>
      <point x="16" y="720" type="line"/>
      <point x="44" y="720" type="line"/>
      <point x="44" y="390" type="line"/>
      <point x="48" y="387"/>
      <point x="53" y="385"/>
      <point x="59" y="385" type="curve" smooth="yes"/>
      <point x="65" y="385"/>
      <point x="69" y="387"/>
      <point x="73" y="390" type="curve"/>
      <point x="73" y="720" type="line"/>
      <point x="101" y="720" type="line"/>
      <point x="101" y="387" type="line"/>
      <point x="95" y="380"/>
      <point x="87" y="375"/>
      <point x="78" y="371" type="curve"/>
      <point x="87" y="368"/>
      <point x="95" y="362"/>
      <point x="101" y="355" type="curve"/>
    </contour>
  </outline>
</glyph>
<glyph name="Y" format="1">
  <advance width="117"/>
  <unicode hex="0059"/>
  <outline>
    <contour>
      <point x="101" y="342" type="line"/>
      <point x="93" y="335"/>
      <point x="83" y="331"/>
      <point x="73" y="329" type="curve"/>
      <point x="73" y="0" type="line"/>
      <point x="45" y="0" type="line"/>
      <point x="45" y="329" type="line"/>
      <point x="35" y="331"/>
      <point x="25" y="335"/>
      <point x="16" y="342" type="curve"/>
      <point x="16" y="720" type="line"/>
      <point x="44" y="720" type="line"/>
      <point x="44" y="355" type="line"/>
      <point x="48" y="352"/>
      <point x="53" y="351"/>
      <point x="59" y="351" type="curve" smooth="yes"/>
      <point x="64" y="351"/>
      <point x="69" y="352"/>
      <point x="74" y="355" type="curve"/>
      <point x="74" y="720" type="line"/>
      <point x="101" y="720" type="line"/>
    </contour>
  </outline>
</glyph>
<glyph name="Z" format="1">
  <advance width="83"/>
  <unicode hex="005A"/>
  <outline>
    <contour>
      <point x="75" y="0" type="line"/>
      <point x="8" y="0" type="line"/>
      <point x="8" y="21" type="line"/>
      <point x="48" y="696" type="line"/>
      <point x="9" y="696" type="line"/>
      <point x="9" y="720" type="line"/>
      <point x="74" y="720" type="line"/>
      <point x="74" y="699" type="line"/>
      <point x="36" y="24" type="line"/>
      <point x="75" y="24" type="line"/>
    </contour>
  </outline>
</glyph>
<glyph name="bracketleft" format="1">
  <advance width="83"/>
  <unicode hex="005B"/>
  <outline>
    <contour>
      <point x="74" y="0" type="line"/>
      <point x="16" y="0" type="line"/>
      <point x="16" y="720" type="line"/>
      <point x="74" y="720" type="line"/>
      <point x="74" y="694" type="line"/>
      <point x="44" y="694" type="line"/>
      <point x="44" y="26" type="line"/>
      <point x="74" y="26" type="line"/>
    </contour>
  </outline>
</glyph>
<glyph name="backslash" format="1">
  <advance width="81"/>
  <unicode hex="005C"/>
  <outline>
    <contour>
      <point x="70" y="0" type="line"/>
      <point x="45" y="0" type="line"/>
      <point x="9" y="720" type="line"/>
      <point x="35" y="720" type="line"/>
    </contour>
  </outline>
</glyph>
<glyph name="bracketright" format="1">
  <advance width="83"/>
  <unicode hex="005D"/>
  <outline>
    <contour>
      <point x="67" y="0" type="line"/>
      <point x="9" y="0" type="line"/>
      <point x="9" y="26" type="line"/>
      <point x="39" y="26" type="line"/>
      <point x="39" y="694" type="line"/>
      <point x="9" y="694" type="line"/>
      <point x="9" y="720" type="line"/>
      <point x="67" y="720" type="line"/>
    </contour>
  </outline>
</glyph>
<glyph name="asciicircum" format="1">
  <advance width="113"/>
  <unicode hex="005E"/>
  <outline>
    <contour>
      <point x="105" y="350" type="line"/>
      <point x="78" y="350" type="line"/>
      <point x="56" y="655" type="line"/>
      <point x="34" y="350" type="line"/>
      <point x="7" y="350" type="line"/>
      <point x="43" y="723" type="line"/>
      <point x="70" y="723" type="line"/>
    </contour>
  </outline>
</glyph>
<glyph name="underscore" format="1">
  <advance width="119"/>
  <unicode hex="005F"/>
  <outline>
    <contour>
      <point x="117" y="-72" type="line"/>
      <point x="2" y="-72" type="line"/>
      <point x="2" y="-46" type="line"/>
      <point x="117" y="-46" type="line"/>
    </contour>
  </outline>
</glyph>
<glyph name="grave" format="1">
  <advance width="115"/>
  <unicode hex="0060"/>
  <outline>
    <contour>
      <point x="89" y="515" type="line"/>
      <point x="63" y="515" type="line"/>
      <point x="26" y="625" type="line"/>
      <point x="54" y="625" type="line"/>
    </contour>
  </outline>
</glyph>
<glyph name="a" format="1">
  <advance width="115"/>
  <unicode hex="0061"/>
  <outline>
    <contour>
      <point x="100" y="11" type="line"/>
      <point x="87" y="0"/>
      <point x="72" y="-4"/>
      <point x="58" y="-4" type="curve" smooth="yes"/>
      <point x="43" y="-4"/>
      <point x="28" y="0"/>
      <point x="15" y="11" type="curve"/>
      <point x="15" y="289" type="line"/>
      <point x="26" y="298"/>
      <point x="37" y="302"/>
      <point x="51" y="302" type="curve" smooth="yes"/>
      <point x="59" y="302"/>
      <point x="66" y="301"/>
      <point x="72" y="298" type="curve"/>
      <point x="72" y="456" type="line"/>
      <point x="68" y="459"/>
      <point x="63" y="460"/>
      <point x="58" y="460" type="curve" smooth="yes"/>
      <point x="52" y="460"/>
      <point x="48" y="459"/>
      <point x="43" y="456" type="curve"/>
      <point x="43" y="354" type="line"/>
      <point x="15" y="354" type="line"/>
      <point x="15" y="469" type="line"/>
      <point x="28" y="480"/>
      <point x="43" y="484"/>
      <point x="58" y="484" type="curve" smooth="yes"/>
      <point x="72" y="484"/>
      <point x="87" y="480"/>
      <point x="100" y="469" type="curve"/>
    </contour>
    <contour>
      <point x="72" y="24" type="curve"/>
      <point x="72" y="274" type="line"/>
      <point x="68" y="277"/>
      <point x="63" y="278"/>
      <point x="58" y="278" type="curve" smooth="yes"/>
      <point x="52" y="278"/>
      <point x="48" y="277"/>
      <point x="43" y="274" type="curve"/>
      <point x="43" y="24" type="line"/>
      <point x="48" y="21"/>
      <point x="52" y="20"/>
      <point x="58" y="20" type="curve" smooth="yes"/>
      <point x="63" y="20"/>
      <point x="68" y="21"/>
    </contour>
  </outline>
</glyph>
<glyph name="b" format="1">
  <advance width="115"/>
  <unicode hex="0062"/>
  <outline>
    <contour>
      <point x="100" y="11" type="line"/>
      <point x="87" y="0"/>
      <point x="72" y="-4"/>
      <point x="58" y="-4" type="curve" smooth="yes"/>
      <point x="43" y="-4"/>
      <point x="28" y="0"/>
      <point x="15" y="11" type="curve"/>
      <point x="15" y="720" type="line"/>
      <point x="43" y="720" type="line"/>
      <point x="43" y="480" type="line"/>
      <point x="49" y="482"/>
      <point x="56" y="484"/>
      <point x="64" y="484" type="curve" smooth="yes"/>
      <point x="79" y="484"/>
      <point x="90" y="480"/>
      <point x="100" y="470" type="curve"/>
    </contour>
    <contour>
      <point x="72" y="24" type="curve"/>
      <point x="72" y="456" type="line"/>
      <point x="68" y="459"/>
      <point x="63" y="460"/>
      <point x="58" y="460" type="curve" smooth="yes"/>
      <point x="52" y="460"/>
      <point x="48" y="459"/>
      <point x="43" y="456" type="curve"/>
      <point x="43" y="24" type="line"/>
      <point x="48" y="21"/>
      <point x="52" y="20"/>
      <point x="58" y="20" type="curve" smooth="yes"/>
      <point x="63" y="20"/>
      <point x="68" y="21"/>
    </contour>
  </outline>
</glyph>
<glyph name="e" format="1">
  <advance width="115"/>
  <unicode hex="0065"/>
  <outline>
    <contour>
      <point x="100" y="11" type="line"/>
      <point x="87" y="0"/>
      <point x="72" y="-4"/>
      <point x="58" y="-4" type="curve" smooth="yes"/>
      <point x="43" y="-4"/>
      <point x="28" y="0"/>
      <point x="15" y="11" type="curve"/>
      <point x="15" y="469" type="line"/>
      <point x="28" y="480"/>
      <point x="43" y="484"/>
      <point x="58" y="484" type="curve" smooth="yes"/>
      <point x="72" y="484"/>
      <point x="87" y="480"/>
      <point x="100" y="469" type="curve"/>
      <point x="100" y="238" type="line"/>
      <point x="43" y="238" type="line"/>
      <point x="43" y="24" type="line"/>
      <point x="48" y="21"/>
      <point x="52" y="20"/>
      <point x="58" y="20" type="curve" smooth="yes"/>
      <point x="63" y="20"/>
      <point x="68" y="21"/>
      <point x="72" y="24" type="curve"/>
      <point x="72" y="170" type="line"/>
      <point x="100" y="170" type="line"/>
    </contour>
    <contour>
      <point x="72" y="262" type="line"/>
      <point x="72" y="456" type="line"/>
      <point x="68" y="459"/>
      <point x="63" y="460"/>
      <point x="58" y="460" type="curve" smooth="yes"/>
      <point x="52" y="460"/>
      <point x="48" y="459"/>
      <point x="43" y="456" type="curve"/>
      <point x="43" y="262" type="line"/>
    </contour>
  </outline>
</glyph>
<glyph name="f" format="1">
  <advance width="82"/>
  <unicode hex="0066"/>
  <outline>
    <contour>
      <point x="79" y="697" type="line"/>
      <point x="68" y="697" type="line" smooth="yes"/>
      <point x="60" y="697"/>
      <point x="50" y="695"/>
      <point x="43" y="689" type="curve"/>
      <point x="43" y="480" type="line"/>
      <point x="76" y="480" type="line"/>
      <point x="76" y="454" type="line"/>
      <point x="43" y="454" type="line"/>
      <point x="43" y="0" type="line"/>
      <point x="15" y="0" type="line"/>
      <point x="15" y="454" type="line"/>
      <point x="15" y="454" type="line"/>
      <point x="15" y="480" type="line"/>
      <point x="15" y="480" type="line"/>
      <point x="15" y="701" type="line"/>
      <point x="25" y="714"/>
      <point x="43" y="723"/>
      <point x="65" y="723" type="curve" smooth="yes"/>
      <point x="79" y="723" type="line"/>
    </contour>
  </outline>
</glyph>
<glyph name="g" format="1">
  <advance width="115"/>
  <unicode hex="0067"/>
  <outline>
    <contour>
      <point x="100" y="-164" type="line"/>
      <point x="87" y="-175"/>
      <point x="72" y="-179"/>
      <point x="58" y="-179" type="curve" smooth="yes"/>
      <point x="43" y="-179"/>
      <point x="28" y="-175"/>
      <point x="15" y="-164" type="curve"/>
      <point x="15" y="-55" type="line"/>
      <point x="43" y="-55" type="line"/>
      <point x="43" y="-151" type="line"/>
      <point x="48" y="-154"/>
      <point x="52" y="-155"/>
      <point x="58" y="-155" type="curve" smooth="yes"/>
      <point x="63" y="-155"/>
      <point x="68" y="-154"/>
      <point x="72" y="-151" type="curve"/>
      <point x="72" y="0" type="line"/>
      <point x="66" y="-2"/>
      <point x="59" y="-4"/>
      <point x="51" y="-4" type="curve" smooth="yes"/>
      <point x="37" y="-4"/>
      <point x="26" y="0"/>
      <point x="15" y="10" type="curve"/>
      <point x="15" y="469" type="line"/>
      <point x="28" y="480"/>
      <point x="43" y="484"/>
      <point x="58" y="484" type="curve" smooth="yes"/>
      <point x="72" y="484"/>
      <point x="87" y="480"/>
      <point x="100" y="469" type="curve"/>
    </contour>
    <contour>
      <point x="72" y="24" type="curve"/>
      <point x="72" y="456" type="line"/>
      <point x="68" y="459"/>
      <point x="63" y="460"/>
      <point x="58" y="460" type="curve" smooth="yes"/>
      <point x="52" y="460"/>
      <point x="48" y="459"/>
      <point x="43" y="456" type="curve"/>
      <point x="43" y="24" type="line"/>
      <point x="48" y="21"/>
      <point x="52" y="20"/>
      <point x="58" y="20" type="curve" smooth="yes"/>
      <point x="63" y="20"/>
      <point x="68" y="21"/>
    </contour>
  </outline>
</glyph>
<glyph name="i" format="1">
  <advance width="59"/>
  <unicode hex="0069"/>
  <outline>
    <contour>
      <point x="44" y="621" type="line"/>
      <point x="16" y="621" type="line"/>
      <point x="16" y="720" type="line"/>
      <point x="44" y="720" type="line"/>
    </contour>
    <contour>
      <point x="44" y="0" type="line"/>
      <point x="16" y="0" type="line"/>
      <point x="16" y="480" type="line"/>
      <point x="44" y="480" type="line"/>
    </contour>
  </outline>
</glyph>
<glyph name="j" format="1">
  <advance width="59"/>
  <unicode hex="006A"/>
  <outline>
    <contour>
      <point x="44" y="621" type="line"/>
      <point x="16" y="621" type="line"/>
      <point x="16" y="720" type="line"/>
      <point x="44" y="720" type="line"/>
    </contour>
    <contour>
      <point x="44" y="-154" type="line"/>
      <point x="34" y="-166"/>
      <point x="16" y="-175"/>
      <point x="-6" y="-175" type="curve" smooth="yes"/>
      <point x="-20" y="-175" type="line"/>
      <point x="-20" y="-149" type="line"/>
      <point x="-9" y="-149" type="line" smooth="yes"/>
      <point x="-1" y="-149"/>
      <point x="9" y="-147"/>
      <point x="16" y="-141" type="curve"/>
      <point x="16" y="480" type="line"/>
      <point x="44" y="480" type="line"/>
    </contour>
  </outline>
</glyph>
<glyph name="k" format="1">
  <advance width="115"/>
  <unicode hex="006B"/>
  <outline>
    <contour>
      <point x="100" y="0" type="line"/>
      <point x="72" y="0" type="line"/>
      <point x="72" y="220" type="line"/>
      <point x="66" y="229"/>
      <point x="55" y="233"/>
      <point x="45" y="233" type="curve" smooth="yes"/>
      <point x="43" y="233" type="line"/>
      <point x="43" y="0" type="line"/>
      <point x="15" y="0" type="line"/>
      <point x="15" y="720" type="line"/>
      <point x="43" y="720" type="line"/>
      <point x="43" y="257" type="line"/>
      <point x="45" y="257" type="line" smooth="yes"/>
      <point x="55" y="257"/>
      <point x="65" y="262"/>
      <point x="72" y="271" type="curve"/>
      <point x="72" y="480" type="line"/>
      <point x="99" y="480" type="line"/>
      <point x="99" y="265" type="line"/>
      <point x="93" y="256"/>
      <point x="83" y="249"/>
      <point x="72" y="245" type="curve"/>
      <point x="83" y="242"/>
      <point x="93" y="235"/>
      <point x="100" y="226" type="curve"/>
    </contour>
  </outline>
</glyph>
<glyph name="m" format="1">
  <advance width="171"/>
  <unicode hex="006D"/>
  <outline>
    <contour>
      <point x="156" y="0" type="line"/>
      <point x="129" y="0" type="line"/>
      <point x="129" y="453" type="line"/>
      <point x="122" y="456"/>
      <point x="112" y="458"/>
      <point x="100" y="459" type="curve"/>
      <point x="100" y="0" type="line"/>
      <point x="72" y="0" type="line"/>
      <point x="72" y="459" type="line"/>
      <point x="60" y="458"/>
      <point x="50" y="456"/>
      <point x="43" y="453" type="curve"/>
      <point x="43" y="0" type="line"/>
      <point x="15" y="0" type="line"/>
      <point x="15" y="467" type="line"/>
      <point x="35" y="479"/>
      <point x="57" y="484"/>
      <point x="86" y="484" type="curve" smooth="yes"/>
      <point x="116" y="484"/>
      <point x="138" y="479"/>
      <point x="156" y="467" type="curve"/>
    </contour>
  </outline>
</glyph>
<glyph name="n" format="1">
  <advance width="115"/>
  <unicode hex="006E"/>
  <outline>
    <contour>
      <point x="100" y="0" type="line"/>
      <point x="72" y="0" type="line"/>
      <point x="72" y="456" type="line"/>
      <point x="68" y="459"/>
      <point x="63" y="460"/>
      <point x="58" y="460" type="curve" smooth="yes"/>
      <point x="52" y="460"/>
      <point x="48" y="459"/>
      <point x="43" y="456" type="curve"/>
      <point x="43" y="0" type="line"/>
      <point x="15" y="0" type="line"/>
      <point x="15" y="469" type="line"/>
      <point x="28" y="480"/>
      <point x="43" y="484"/>
      <point x="58" y="484" type="curve" smooth="yes"/>
      <point x="72" y="484"/>
      <point x="87" y="480"/>
      <point x="100" y="469" type="curve"/>
    </contour>
  </outline>
</glyph>
<glyph name="p" format="1">
  <advance width="115"/>
  <unicode hex="0070"/>
  <outline>
    <contour>
      <point x="100" y="10" type="line"/>
      <point x="90" y="0"/>
      <point x="79" y="-4"/>
      <point x="64" y="-4" type="curve" smooth="yes"/>
      <point x="56" y="-4"/>
      <point x="49" y="-2"/>
      <point x="43" y="0" type="curve"/>
      <point x="43" y="-175" type="line"/>
      <point x="15" y="-175" type="line"/>
      <point x="15" y="469" type="line"/>
      <point x="28" y="480"/>
      <point x="43" y="484"/>
      <point x="58" y="484" type="curve" smooth="yes"/>
      <point x="72" y="484"/>
      <point x="87" y="480"/>
      <point x="100" y="469" type="curve"/>
    </contour>
    <contour>
      <point x="72" y="24" type="curve"/>
      <point x="72" y="456" type="line"/>
      <point x="68" y="459"/>
      <point x="63" y="460"/>
      <point x="58" y="460" type="curve" smooth="yes"/>
      <point x="52" y="460"/>
      <point x="48" y="459"/>
      <point x="43" y="456" type="curve"/>
      <point x="43" y="24" type="line"/>
      <point x="48" y="21"/>
      <point x="52" y="20"/>
      <point x="58" y="20" type="curve" smooth="yes"/>
      <point x="63" y="20"/>
      <point x="68" y="21"/>
    </contour>
  </outline>
</glyph>
<glyph name="r" format="1">
  <advance width="84"/>
  <unicode hex="0072"/>
  <outline>
    <contour>
      <point x="79" y="455" type="line"/>
      <point x="68" y="455" type="line" smooth="yes"/>
      <point x="60" y="455"/>
      <point x="50" y="453"/>
      <point x="43" y="447" type="curve"/>
      <point x="43" y="0" type="line"/>
      <point x="15" y="0" type="line"/>
      <point x="15" y="460" type="line"/>
      <point x="25" y="472"/>
      <point x="43" y="481"/>
      <point x="65" y="481" type="curve" smooth="yes"/>
      <point x="79" y="481" type="line"/>
    </contour>
  </outline>
</glyph>
<glyph name="t" format="1">
  <advance width="86"/>
  <unicode hex="0074"/>
  <outline>
    <contour>
      <point x="79" y="-3" type="line"/>
      <point x="65" y="-3" type="line" smooth="yes"/>
      <point x="43" y="-3"/>
      <point x="25" y="6"/>
      <point x="15" y="19" type="curve"/>
      <point x="15" y="454" type="line"/>
      <point x="15" y="454" type="line"/>
      <point x="15" y="480" type="line"/>
      <point x="15" y="480" type="line"/>
      <point x="15" y="640" type="line"/>
      <point x="43" y="640" type="line"/>
      <point x="43" y="480" type="line"/>
      <point x="76" y="480" type="line"/>
      <point x="76" y="454" type="line"/>
      <point x="43" y="454" type="line"/>
      <point x="43" y="31" type="line"/>
      <point x="50" y="25"/>
      <point x="60" y="23"/>
      <point x="68" y="23" type="curve" smooth="yes"/>
      <point x="79" y="23" type="line"/>
    </contour>
  </outline>
</glyph>
<glyph name="u" format="1">
  <advance width="115"/>
  <unicode hex="0075"/>
  <outline>
    <contour>
      <point x="100" y="11" type="line"/>
      <point x="87" y="0"/>
      <point x="72" y="-4"/>
      <point x="58" y="-4" type="curve" smooth="yes"/>
      <point x="43" y="-4"/>
      <point x="28" y="0"/>
      <point x="15" y="11" type="curve"/>
      <point x="15" y="480" type="line"/>
      <point x="43" y="480" type="line"/>
      <point x="43" y="24" type="line"/>
      <point x="48" y="21"/>
      <point x="52" y="20"/>
      <point x="58" y="20" type="curve" smooth="yes"/>
      <point x="63" y="20"/>
      <point x="68" y="21"/>
      <point x="72" y="24" type="curve"/>
      <point x="72" y="480" type="line"/>
      <point x="100" y="480" type="line"/>
    </contour>
  </outline>
</glyph>
<glyph name="v" format="1">
  <advance width="115"/>
  <unicode hex="0076"/>
  <outline>
    <contour>
      <point x="100" y="273" type="line" smooth="yes"/>
      <point x="100" y="115"/>
      <point x="90" y="65"/>
      <point x="70" y="0" type="curve"/>
      <point x="45" y="0" type="line"/>
      <point x="26" y="65"/>
      <point x="15" y="115"/>
      <point x="15" y="273" type="curve" smooth="yes"/>
      <point x="15" y="480" type="line"/>
      <point x="43" y="480" type="line"/>
      <point x="43" y="273" type="line" smooth="yes"/>
      <point x="43" y="136"/>
      <point x="48" y="87"/>
      <point x="58" y="44" type="curve"/>
      <point x="68" y="87"/>
      <point x="72" y="136"/>
      <point x="72" y="273" type="curve" smooth="yes"/>
      <point x="72" y="480" type="line"/>
      <point x="100" y="480" type="line"/>
    </contour>
  </outline>
</glyph>
<glyph name="w" format="1">
  <advance width="171"/>
  <unicode hex="0077"/>
  <outline>
    <contour>
      <point x="156" y="13" type="line"/>
      <point x="138" y="1"/>
      <point x="116" y="-4"/>
      <point x="86" y="-4" type="curve" smooth="yes"/>
      <point x="57" y="-4"/>
      <point x="35" y="1"/>
      <point x="15" y="13" type="curve"/>
      <point x="15" y="480" type="line"/>
      <point x="43" y="480" type="line"/>
      <point x="43" y="27" type="line"/>
      <point x="50" y="24"/>
      <point x="60" y="22"/>
      <point x="72" y="21" type="curve"/>
      <point x="72" y="480" type="line"/>
      <point x="100" y="480" type="line"/>
      <point x="100" y="21" type="line"/>
      <point x="112" y="22"/>
      <point x="122" y="24"/>
      <point x="129" y="27" type="curve"/>
      <point x="129" y="480" type="line"/>
      <point x="156" y="480" type="line"/>
    </contour>
  </outline>
</glyph>
<glyph name="x" format="1">
  <advance width="117"/>
  <unicode hex="0078"/>
  <outline>
    <contour>
      <point x="100" y="0" type="line"/>
      <point x="72" y="0" type="line"/>
      <point x="72" y="227" type="line"/>
      <point x="68" y="230"/>
      <point x="64" y="232"/>
      <point x="58" y="232" type="curve" smooth="yes"/>
      <point x="52" y="232"/>
      <point x="47" y="230"/>
      <point x="43" y="227" type="curve"/>
      <point x="43" y="0" type="line"/>
      <point x="15" y="0" type="line"/>
      <point x="15" y="230" type="line"/>
      <point x="22" y="237"/>
      <point x="30" y="242"/>
      <point x="39" y="245" type="curve"/>
      <point x="30" y="249"/>
      <point x="22" y="254"/>
      <point x="16" y="261" type="curve"/>
      <point x="16" y="480" type="line"/>
      <point x="44" y="480" type="line"/>
      <point x="44" y="265" type="line"/>
      <point x="48" y="261"/>
      <point x="52" y="259"/>
      <point x="58" y="259" type="curve" smooth="yes"/>
      <point x="64" y="259"/>
      <point x="68" y="261"/>
      <point x="72" y="265" type="curve"/>
      <point x="72" y="480" type="line"/>
      <point x="99" y="480" type="line"/>
      <point x="99" y="261" type="line"/>
      <point x="93" y="254"/>
      <point x="86" y="249"/>
      <point x="76" y="245" type="curve"/>
      <point x="86" y="242"/>
      <point x="93" y="237"/>
      <point x="100" y="230" type="curve"/>
    </contour>
  </outline>
</glyph>
<glyph name="y" format="1">
  <advance width="115"/>
  <unicode hex="0079"/>
  <outline>
    <contour>
      <point x="100" y="-164" type="line"/>
      <point x="87" y="-175"/>
      <point x="72" y="-179"/>
      <point x="58" y="-179" type="curve" smooth="yes"/>
      <point x="43" y="-179"/>
      <point x="28" y="-175"/>
      <point x="15" y="-164" type="curve"/>
      <point x="15" y="-55" type="line"/>
      <point x="43" y="-55" type="line"/>
      <point x="43" y="-151" type="line"/>
      <point x="48" y="-154"/>
      <point x="52" y="-155"/>
      <point x="58" y="-155" type="curve" smooth="yes"/>
      <point x="63" y="-155"/>
      <point x="68" y="-154"/>
      <point x="72" y="-151" type="curve"/>
      <point x="72" y="0" type="line"/>
      <point x="66" y="-2"/>
      <point x="59" y="-4"/>
      <point x="51" y="-4" type="curve" smooth="yes"/>
      <point x="37" y="-4"/>
      <point x="26" y="0"/>
      <point x="15" y="10" type="curve"/>
      <point x="15" y="480" type="line"/>
      <point x="43" y="480" type="line"/>
      <point x="43" y="24" type="line"/>
      <point x="47" y="21"/>
      <point x="52" y="20"/>
      <point x="58" y="20" type="curve" smooth="yes"/>
      <point x="63" y="20"/>
      <point x="68" y="21"/>
      <point x="72" y="24" type="curve"/>
      <point x="72" y="480" type="line"/>
      <point x="100" y="480" type="line"/>
    </contour>
  </outline>
</glyph>
<glyph name="z" format="1">
  <advance width="82"/>
  <unicode hex="007A"/>
  <outline>
    <contour>
      <point x="74" y="0" type="line"/>
      <point x="8" y="0" type="line"/>
      <point x="8" y="21" type="line"/>
      <point x="47" y="456" type="line"/>
      <point x="9" y="456" type="line"/>
      <point x="9" y="480" type="line"/>
      <point x="73" y="480" type="line"/>
      <point x="73" y="459" type="line"/>
      <point x="36" y="24" type="line"/>
      <point x="74" y="24" type="line"/>
    </contour>
  </outline>
</glyph>
<glyph name="braceleft" format="1">
  <advance width="99"/>
  <unicode hex="007B"/>
  <outline>
    <contour>
      <point x="90" y="-2" type="line"/>
      <point x="62" y="-2"/>
      <point x="45" y="6"/>
      <point x="33" y="24" type="curve"/>
      <point x="33" y="347" type="line"/>
      <point x="27" y="355"/>
      <point x="19" y="359"/>
      <point x="5" y="359" type="curve"/>
      <point x="5" y="383" type="line"/>
      <point x="19" y="383"/>
      <point x="27" y="388"/>
      <point x="33" y="395" type="curve"/>
      <point x="33" y="696" type="line"/>
      <point x="45" y="714"/>
      <point x="62" y="722"/>
      <point x="90" y="722" type="curve"/>
      <point x="90" y="695" type="line"/>
      <point x="78" y="695"/>
      <point x="67" y="693"/>
      <point x="60" y="684" type="curve"/>
      <point x="60" y="390" type="line"/>
      <point x="54" y="381"/>
      <point x="45" y="375"/>
      <point x="35" y="372" type="curve"/>
      <point x="45" y="368"/>
      <point x="54" y="362"/>
      <point x="60" y="353" type="curve"/>
      <point x="60" y="36" type="line"/>
      <point x="67" y="27"/>
      <point x="78" y="25"/>
      <point x="90" y="25" type="curve"/>
    </contour>
  </outline>
</glyph>
<glyph name="bar" format="1">
  <advance width="59"/>
  <unicode hex="007C"/>
  <outline>
    <contour>
      <point x="43" y="-65" type="line"/>
      <point x="16" y="-65" type="line"/>
      <point x="16" y="785" type="line"/>
      <point x="43" y="785" type="line"/>
    </contour>
  </outline>
</glyph>
<glyph name="braceright" format="1">
  <advance width="99"/>
  <unicode hex="007D"/>
  <outline>
    <contour>
      <point x="94" y="359" type="line"/>
      <point x="81" y="359"/>
      <point x="72" y="355"/>
      <point x="67" y="347" type="curve"/>
      <point x="67" y="24" type="line"/>
      <point x="55" y="6"/>
      <point x="37" y="-2"/>
      <point x="9" y="-2" type="curve"/>
      <point x="9" y="25" type="line"/>
      <point x="22" y="25"/>
      <point x="32" y="27"/>
      <point x="39" y="36" type="curve"/>
      <point x="39" y="353" type="line"/>
      <point x="46" y="362"/>
      <point x="54" y="368"/>
      <point x="64" y="372" type="curve"/>
      <point x="54" y="375"/>
      <point x="46" y="381"/>
      <point x="39" y="390" type="curve"/>
      <point x="39" y="684" type="line"/>
      <point x="32" y="693"/>
      <point x="22" y="695"/>
      <point x="9" y="695" type="curve"/>
      <point x="9" y="722" type="line"/>
      <point x="37" y="722"/>
      <point x="55" y="714"/>
      <point x="67" y="696" type="curve"/>
      <point x="67" y="395" type="line"/>
      <point x="72" y="388"/>
      <point x="81" y="383"/>
      <point x="94" y="383" type="curve"/>
    </contour>
  </outline>
</glyph>
<glyph name="asciitilde" format="1">
  <advance width="115"/>
  <unicode hex="007E"/>
  <outline>
    <contour>
      <point x="99" y="318" type="line"/>
      <point x="77" y="318" type="line"/>
      <point x="38" y="388" type="line"/>
      <point x="38" y="318" type="line"/>
      <point x="16" y="318" type="line"/>
      <point x="16" y="428" type="line"/>
      <point x="38" y="428" type="line"/>
      <point x="77" y="358" type="line"/>
      <point x="77" y="428" type="line"/>
      <point x="99" y="428" type="line"/>
    </contour>
  </outline>
</glyph>
<glyph name="exclamdown" format="1">
  <advance width="61"/>
  <unicode hex="00A1"/>
  <outline>
    <contour>
      <point x="44" y="621" type="line"/>
      <point x="16" y="621" type="line"/>
      <point x="16" y="720" type="line"/>
      <point x="44" y="720" type="line"/>
    </contour>
    <contour>
      <point x="44" y="0" type="line"/>
      <point x="16" y="0" type="line"/>
      <point x="16" y="576" type="line"/>
      <point x="44" y="576" type="line"/>
    </contour>
  </outline>
</glyph>
<glyph name="cent" format="1">
  <advance width="115"/>
  <unicode hex="00A2"/>
  <outline>
    <contour>
      <point x="100" y="131" type="line"/>
      <point x="91" y="124"/>
      <point x="81" y="120"/>
      <point x="70" y="118" type="curve"/>
      <point x="70" y="0" type="line"/>
      <point x="45" y="0" type="line"/>
      <point x="45" y="118" type="line"/>
      <point x="35" y="120"/>
      <point x="25" y="124"/>
      <point x="15" y="131" type="curve"/>
      <point x="15" y="590" type="line"/>
      <point x="25" y="597"/>
      <point x="35" y="602"/>
      <point x="45" y="603" type="curve"/>
      <point x="45" y="720" type="line"/>
      <point x="70" y="720" type="line"/>
      <point x="70" y="603" type="line"/>
      <point x="81" y="602"/>
      <point x="91" y="597"/>
      <point x="100" y="590" type="curve"/>
      <point x="100" y="431" type="line"/>
      <point x="72" y="431" type="line"/>
      <point x="72" y="576" type="line"/>
      <point x="68" y="579"/>
      <point x="63" y="580"/>
      <point x="58" y="580" type="curve" smooth="yes"/>
      <point x="52" y="580"/>
      <point x="48" y="579"/>
      <point x="43" y="576" type="curve"/>
      <point x="43" y="145" type="line"/>
      <point x="48" y="142"/>
      <point x="52" y="141"/>
      <point x="58" y="141" type="curve" smooth="yes"/>
      <point x="63" y="141"/>
      <point x="68" y="142"/>
      <point x="72" y="145" type="curve"/>
      <point x="72" y="290" type="line"/>
      <point x="100" y="290" type="line"/>
    </contour>
  </outline>
</glyph>
<glyph name="yen" format="1">
  <advance width="117"/>
  <unicode hex="00A5"/>
  <outline>
    <contour>
      <point x="101" y="342" type="line"/>
      <point x="93" y="335"/>
      <point x="83" y="331"/>
      <point x="72" y="329" type="curve"/>
      <point x="72" y="176" type="line"/>
      <point x="99" y="176" type="line"/>
      <point x="99" y="150" type="line"/>
      <point x="72" y="150" type="line"/>
      <point x="72" y="0" type="line"/>
      <point x="46" y="0" type="line"/>
      <point x="46" y="150" type="line"/>
      <point x="18" y="150" type="line"/>
      <point x="18" y="176" type="line"/>
      <point x="46" y="176" type="line"/>
      <point x="46" y="329" type="line"/>
      <point x="35" y="331"/>
      <point x="25" y="335"/>
      <point x="16" y="342" type="curve"/>
      <point x="16" y="720" type="line"/>
      <point x="44" y="720" type="line"/>
      <point x="44" y="355" type="line"/>
      <point x="48" y="352"/>
      <point x="53" y="351"/>
      <point x="59" y="351" type="curve" smooth="yes"/>
      <point x="64" y="351"/>
      <point x="69" y="352"/>
      <point x="74" y="355" type="curve"/>
      <point x="74" y="720" type="line"/>
      <point x="101" y="720" type="line"/>
    </contour>
  </outline>
</glyph>
<glyph name="section" format="1">
  <advance width="117"/>
  <unicode hex="00A7"/>
  <outline>
    <contour>
      <point x="101" y="-164" type="line"/>
      <point x="89" y="-175"/>
      <point x="74" y="-179"/>
      <point x="59" y="-179" type="curve" smooth="yes"/>
      <point x="43" y="-179"/>
      <point x="29" y="-175"/>
      <point x="16" y="-164" type="curve"/>
      <point x="16" y="67" type="line"/>
      <point x="44" y="67" type="line"/>
      <point x="44" y="-151" type="line"/>
      <point x="48" y="-154"/>
      <point x="53" y="-155"/>
      <point x="59" y="-155" type="curve" smooth="yes"/>
      <point x="64" y="-155"/>
      <point x="69" y="-154"/>
      <point x="74" y="-151" type="curve"/>
      <point x="74" y="69" type="line"/>
      <point x="52" y="105" type="line"/>
      <point x="52" y="105" type="line"/>
      <point x="39" y="106"/>
      <point x="27" y="110"/>
      <point x="16" y="119" type="curve"/>
      <point x="16" y="425" type="line"/>
      <point x="23" y="430"/>
      <point x="30" y="434"/>
      <point x="39" y="436" type="curve"/>
      <point x="16" y="471" type="line"/>
      <point x="16" y="709" type="line"/>
      <point x="29" y="720"/>
      <point x="43" y="724"/>
      <point x="59" y="724" type="curve" smooth="yes"/>
      <point x="74" y="724"/>
      <point x="89" y="720"/>
      <point x="101" y="709" type="curve"/>
      <point x="101" y="478" type="line"/>
      <point x="74" y="478" type="line"/>
      <point x="74" y="696" type="line"/>
      <point x="69" y="699"/>
      <point x="64" y="700"/>
      <point x="59" y="700" type="curve" smooth="yes"/>
      <point x="53" y="700"/>
      <point x="48" y="699"/>
      <point x="44" y="696" type="curve"/>
      <point x="44" y="476" type="line"/>
      <point x="66" y="439" type="line"/>
      <point x="66" y="439" type="line"/>
      <point x="79" y="438"/>
      <point x="91" y="434"/>
      <point x="101" y="425" type="curve"/>
      <point x="101" y="119" type="line"/>
      <point x="95" y="114"/>
      <point x="88" y="110"/>
      <point x="79" y="108" type="curve"/>
      <point x="101" y="74" type="line"/>
    </contour>
    <contour>
      <point x="74" y="132" type="curve"/>
      <point x="74" y="412" type="line"/>
      <point x="69" y="415"/>
      <point x="64" y="416"/>
      <point x="59" y="416" type="curve" smooth="yes"/>
      <point x="53" y="416"/>
      <point x="48" y="415"/>
      <point x="44" y="412" type="curve"/>
      <point x="44" y="132" type="line"/>
      <point x="48" y="129"/>
      <point x="53" y="128"/>
      <point x="59" y="128" type="curve" smooth="yes"/>
      <point x="64" y="128"/>
      <point x="69" y="129"/>
    </contour>
  </outline>
</glyph>
<glyph name="dieresis" format="1">
  <advance width="115"/>
  <unicode hex="00A8"/>
  <outline>
    <contour>
      <point x="99" y="515" type="line"/>
      <point x="73" y="515" type="line"/>
      <point x="73" y="625" type="line"/>
      <point x="99" y="625" type="line"/>
    </contour>
    <contour>
      <point x="42" y="515" type="line"/>
      <point x="16" y="515" type="line"/>
      <point x="16" y="625" type="line"/>
      <point x="42" y="625" type="line"/>
    </contour>
  </outline>
</glyph>
<glyph name="copyright" format="1">
  <advance width="237"/>
  <unicode hex="00A9"/>
  <outline>
    <contour>
      <point x="221" y="28" type="line"/>
      <point x="192" y="5"/>
      <point x="158" y="-4"/>
      <point x="119" y="-4" type="curve" smooth="yes"/>
      <point x="80" y="-4"/>
      <point x="45" y="5"/>
      <point x="16" y="28" type="curve"/>
      <point x="16" y="692" type="line"/>
      <point x="45" y="715"/>
      <point x="80" y="724"/>
      <point x="119" y="724" type="curve" smooth="yes"/>
      <point x="158" y="724"/>
      <point x="192" y="715"/>
      <point x="221" y="692" type="curve"/>
    </contour>
    <contour>
      <point x="194" y="42" type="curve"/>
      <point x="194" y="678" type="line"/>
      <point x="169" y="693"/>
      <point x="146" y="698"/>
      <point x="119" y="698" type="curve" smooth="yes"/>
      <point x="92" y="698"/>
      <point x="68" y="693"/>
      <point x="44" y="678" type="curve"/>
      <point x="44" y="42" type="line"/>
      <point x="68" y="27"/>
      <point x="92" y="22"/>
      <point x="119" y="22" type="curve" smooth="yes"/>
      <point x="146" y="22"/>
      <point x="169" y="27"/>
    </contour>
    <contour>
      <point x="161" y="69" type="line"/>
      <point x="149" y="58"/>
      <point x="134" y="55"/>
      <point x="119" y="55" type="curve" smooth="yes"/>
      <point x="103" y="55"/>
      <point x="89" y="58"/>
      <point x="76" y="69" type="curve"/>
      <point x="76" y="651" type="line"/>
      <point x="89" y="662"/>
      <point x="103" y="665"/>
      <point x="119" y="665" type="curve" smooth="yes"/>
      <point x="134" y="665"/>
      <point x="149" y="662"/>
      <point x="161" y="651" type="curve"/>
      <point x="161" y="447" type="line"/>
      <point x="134" y="447" type="line"/>
      <point x="134" y="638" type="line"/>
      <point x="129" y="641"/>
      <point x="124" y="642"/>
      <point x="119" y="642" type="curve" smooth="yes"/>
      <point x="113" y="642"/>
      <point x="108" y="641"/>
      <point x="104" y="638" type="curve"/>
      <point x="104" y="82" type="line"/>
      <point x="108" y="79"/>
      <point x="113" y="78"/>
      <point x="119" y="78" type="curve" smooth="yes"/>
      <point x="124" y="78"/>
      <point x="129" y="79"/>
      <point x="134" y="82" type="curve"/>
      <point x="134" y="273" type="line"/>
      <point x="161" y="273" type="line"/>
    </contour>
  </outline>
</glyph>
<glyph name="ordfeminine" format="1">
  <advance width="115"/>
  <unicode hex="00AA"/>
  <outline>
    <contour>
      <point x="100" y="304" type="line"/>
      <point x="87" y="294"/>
      <point x="72" y="290"/>
      <point x="58" y="290" type="curve" smooth="yes"/>
      <point x="43" y="290"/>
      <point x="28" y="294"/>
      <point x="15" y="304" type="curve"/>
      <point x="15" y="536" type="line"/>
      <point x="26" y="545"/>
      <point x="37" y="550"/>
      <point x="51" y="550" type="curve" smooth="yes"/>
      <point x="59" y="550"/>
      <point x="66" y="548"/>
      <point x="72" y="545" type="curve"/>
      <point x="72" y="696" type="line"/>
      <point x="68" y="699"/>
      <point x="63" y="700"/>
      <point x="58" y="700" type="curve" smooth="yes"/>
      <point x="52" y="700"/>
      <point x="48" y="699"/>
      <point x="43" y="696" type="curve"/>
      <point x="43" y="601" type="line"/>
      <point x="15" y="601" type="line"/>
      <point x="15" y="709" type="line"/>
      <point x="28" y="720"/>
      <point x="43" y="724"/>
      <point x="58" y="724" type="curve" smooth="yes"/>
      <point x="72" y="724"/>
      <point x="87" y="720"/>
      <point x="100" y="709" type="curve"/>
    </contour>
    <contour>
      <point x="72" y="318" type="curve"/>
      <point x="72" y="522" type="line"/>
      <point x="68" y="525"/>
      <point x="63" y="526"/>
      <point x="58" y="526" type="curve" smooth="yes"/>
      <point x="52" y="526"/>
      <point x="48" y="525"/>
      <point x="43" y="522" type="curve"/>
      <point x="43" y="318" type="line"/>
      <point x="48" y="315"/>
      <point x="52" y="314"/>
      <point x="58" y="314" type="curve" smooth="yes"/>
      <point x="63" y="314"/>
      <point x="68" y="315"/>
    </contour>
  </outline>
</glyph>
<glyph name="guillemotleft" format="1">
  <advance width="126"/>
  <unicode hex="00AB"/>
  <outline>
    <contour>
      <point x="118" y="64" type="line"/>
      <point x="58" y="221" type="line"/>
      <point x="58" y="259" type="line"/>
      <point x="118" y="416" type="line"/>
      <point x="118" y="360" type="line"/>
      <point x="75" y="240" type="line"/>
      <point x="118" y="121" type="line"/>
    </contour>
    <contour>
      <point x="66" y="64" type="line"/>
      <point x="5" y="221" type="line"/>
      <point x="5" y="259" type="line"/>
      <point x="66" y="416" type="line"/>
      <point x="66" y="360" type="line"/>
      <point x="23" y="240" type="line"/>
      <point x="66" y="121" type="line"/>
    </contour>
  </outline>
</glyph>
<glyph name="macron" format="1">
  <advance width="115"/>
  <unicode hex="00AF"/>
  <unicode hex="02C9"/>
  <outline>
    <contour>
      <point x="99" y="515" type="line"/>
      <point x="15" y="515" type="line"/>
      <point x="15" y="541" type="line"/>
      <point x="99" y="541" type="line"/>
    </contour>
  </outline>
</glyph>
<glyph name="degree" format="1">
  <advance width="112"/>
  <unicode hex="00B0"/>
  <outline>
    <contour>
      <point x="97" y="353" type="line"/>
      <point x="85" y="342"/>
      <point x="71" y="339"/>
      <point x="56" y="339" type="curve" smooth="yes"/>
      <point x="41" y="339"/>
      <point x="27" y="342"/>
      <point x="15" y="353" type="curve"/>
      <point x="15" y="709" type="line"/>
      <point x="27" y="720"/>
      <point x="41" y="724"/>
      <point x="56" y="724" type="curve" smooth="yes"/>
      <point x="71" y="724"/>
      <point x="85" y="720"/>
      <point x="97" y="709" type="curve"/>
    </contour>
    <contour>
      <point x="71" y="366" type="curve"/>
      <point x="71" y="697" type="line"/>
      <point x="66" y="700"/>
      <point x="62" y="701"/>
      <point x="56" y="701" type="curve" smooth="yes"/>
      <point x="51" y="701"/>
      <point x="46" y="700"/>
      <point x="42" y="697" type="curve"/>
      <point x="42" y="366" type="line"/>
      <point x="46" y="363"/>
      <point x="51" y="362"/>
      <point x="56" y="362" type="curve" smooth="yes"/>
      <point x="62" y="362"/>
      <point x="66" y="363"/>
    </contour>
  </outline>
</glyph>
<glyph name="acute" format="1">
  <advance width="115"/>
  <unicode hex="00B4"/>
  <outline>
    <contour>
      <point x="89" y="625" type="line"/>
      <point x="52" y="515" type="line"/>
      <point x="26" y="515" type="line"/>
      <point x="61" y="625" type="line"/>
    </contour>
  </outline>
</glyph>
<glyph name="paragraph" format="1">
  <advance width="153"/>
  <unicode hex="00B6"/>
  <outline>
    <contour>
      <point x="138" y="0" type="line"/>
      <point x="114" y="0" type="line"/>
      <point x="114" y="698" type="line"/>
      <point x="95" y="698" type="line"/>
      <point x="95" y="0" type="line"/>
      <point x="71" y="0" type="line"/>
      <point x="71" y="346" type="line"/>
      <point x="67" y="346" type="line" smooth="yes"/>
      <point x="45" y="346"/>
      <point x="27" y="353"/>
      <point x="14" y="371" type="curve"/>
      <point x="14" y="695" type="line"/>
      <point x="27" y="713"/>
      <point x="45" y="720"/>
      <point x="67" y="720" type="curve" smooth="yes"/>
      <point x="138" y="720" type="line"/>
    </contour>
    <contour>
      <point x="71" y="368" type="line"/>
      <point x="71" y="698" type="line"/>
      <point x="67" y="698" type="line" smooth="yes"/>
      <point x="56" y="698"/>
      <point x="46" y="694"/>
      <point x="41" y="686" type="curve"/>
      <point x="41" y="380" type="line"/>
      <point x="46" y="372"/>
      <point x="55" y="368"/>
      <point x="67" y="368" type="curve" smooth="yes"/>
    </contour>
  </outline>
</glyph>
<glyph name="periodcentered" format="1">
  <advance width="59"/>
  <unicode hex="00B7"/>
  <unicode hex="2219"/>
  <outline>
    <contour>
      <point x="44" y="246" type="line"/>
      <point x="15" y="246" type="line"/>
      <point x="15" y="345" type="line"/>
      <point x="44" y="345" type="line"/>
    </contour>
  </outline>
</glyph>
<glyph name="cedilla" format="1">
  <advance width="115"/>
  <unicode hex="00B8"/>
  <outline>
    <contour>
      <point x="70" y="-53" type="line"/>
      <point x="61" y="-65"/>
      <point x="47" y="-70"/>
      <point x="31" y="-70" type="curve" smooth="yes"/>
      <point x="25" y="-70" type="line"/>
      <point x="25" y="-45" type="line"/>
      <point x="28" y="-45" type="line" smooth="yes"/>
      <point x="34" y="-45"/>
      <point x="40" y="-43"/>
      <point x="45" y="-38" type="curve"/>
      <point x="45" y="8" type="line"/>
      <point x="70" y="8" type="line"/>
    </contour>
  </outline>
</glyph>
<glyph name="ordmasculine" format="1">
  <advance width="115"/>
  <unicode hex="00BA"/>
  <outline>
    <contour>
      <point x="100" y="304" type="line"/>
      <point x="87" y="294"/>
      <point x="72" y="290"/>
      <point x="58" y="290" type="curve" smooth="yes"/>
      <point x="43" y="290"/>
      <point x="28" y="294"/>
      <point x="15" y="304" type="curve"/>
      <point x="15" y="709" type="line"/>
      <point x="28" y="720"/>
      <point x="43" y="724"/>
      <point x="58" y="724" type="curve" smooth="yes"/>
      <point x="72" y="724"/>
      <point x="87" y="720"/>
      <point x="100" y="709" type="curve"/>
    </contour>
    <contour>
      <point x="72" y="318" type="curve"/>
      <point x="72" y="696" type="line"/>
      <point x="68" y="699"/>
      <point x="63" y="700"/>
      <point x="58" y="700" type="curve" smooth="yes"/>
      <point x="52" y="700"/>
      <point x="48" y="699"/>
      <point x="43" y="696" type="curve"/>
      <point x="43" y="318" type="line"/>
      <point x="48" y="315"/>
      <point x="52" y="314"/>
      <point x="58" y="314" type="curve" smooth="yes"/>
      <point x="63" y="314"/>
      <point x="68" y="315"/>
    </contour>
  </outline>
</glyph>
<glyph name="guillemotright" format="1">
  <advance width="126"/>
  <unicode hex="00BB"/>
  <outline>
    <contour>
      <point x="121" y="221" type="line"/>
      <point x="61" y="64" type="line"/>
      <point x="61" y="121" type="line"/>
      <point x="104" y="240" type="line"/>
      <point x="61" y="360" type="line"/>
      <point x="61" y="416" type="line"/>
      <point x="121" y="259" type="line"/>
    </contour>
    <contour>
      <point x="69" y="221" type="line"/>
      <point x="8" y="64" type="line"/>
      <point x="8" y="121" type="line"/>
      <point x="51" y="240" type="line"/>
      <point x="8" y="360" type="line"/>
      <point x="8" y="416" type="line"/>
      <point x="69" y="259" type="line"/>
    </contour>
  </outline>
</glyph>
<glyph name="questiondown" format="1">
  <advance width="114"/>
  <unicode hex="00BF"/>
  <outline>
    <contour>
      <point x="71" y="621" type="line"/>
      <point x="44" y="621" type="line"/>
      <point x="44" y="720" type="line"/>
      <point x="71" y="720" type="line"/>
    </contour>
    <contour>
      <point x="100" y="11" type="line"/>
      <point x="87" y="0"/>
      <point x="73" y="-4"/>
      <point x="57" y="-4" type="curve" smooth="yes"/>
      <point x="42" y="-4"/>
      <point x="27" y="0"/>
      <point x="14" y="11" type="curve"/>
      <point x="14" y="271" type="line"/>
      <point x="44" y="410" type="line"/>
      <point x="44" y="576" type="line"/>
      <point x="71" y="576" type="line"/>
      <point x="71" y="414" type="line"/>
      <point x="42" y="277" type="line"/>
      <point x="42" y="24" type="line"/>
      <point x="47" y="21"/>
      <point x="52" y="20"/>
      <point x="57" y="20" type="curve" smooth="yes"/>
      <point x="63" y="20"/>
      <point x="68" y="21"/>
      <point x="72" y="24" type="curve"/>
      <point x="72" y="273" type="line"/>
      <point x="100" y="273" type="line"/>
    </contour>
  </outline>
</glyph>
<glyph name="Aring" format="1">
  <advance width="117"/>
  <unicode hex="00C5"/>
  <outline>
    <contour>
      <point x="101" y="0" type="line"/>
      <point x="74" y="0" type="line"/>
      <point x="74" y="357" type="line"/>
      <point x="44" y="357" type="line"/>
      <point x="44" y="0" type="line"/>
      <point x="16" y="0" type="line"/>
      <point x="16" y="709" type="line"/>
      <point x="29" y="720"/>
      <point x="43" y="724"/>
      <point x="59" y="724" type="curve" smooth="yes"/>
      <point x="74" y="724"/>
      <point x="89" y="720"/>
      <point x="101" y="709" type="curve"/>
    </contour>
    <contour>
      <point x="74" y="384" type="line"/>
      <point x="74" y="696" type="line"/>
      <point x="69" y="699"/>
      <point x="64" y="700"/>
      <point x="59" y="700" type="curve" smooth="yes"/>
      <point x="53" y="700"/>
      <point x="48" y="699"/>
      <point x="44" y="696" type="curve"/>
      <point x="44" y="384" type="line"/>
    </contour>
    <contour>
      <point x="101" y="757" type="line"/>
      <point x="88" y="747"/>
      <point x="73" y="743"/>
      <point x="59" y="743" type="curve" smooth="yes"/>
      <point x="44" y="743"/>
      <point x="29" y="747"/>
      <point x="16" y="757" type="curve"/>
      <point x="16" y="839" type="line"/>
      <point x="29" y="849"/>
      <point x="44" y="853"/>
      <point x="59" y="853" type="curve" smooth="yes"/>
      <point x="73" y="853"/>
      <point x="88" y="849"/>
      <point x="101" y="839" type="curve"/>
    </contour>
    <contour>
      <point x="77" y="767" type="curve"/>
      <point x="77" y="829" type="line"/>
      <point x="71" y="832"/>
      <point x="65" y="833"/>
      <point x="59" y="833" type="curve" smooth="yes"/>
      <point x="52" y="833"/>
      <point x="46" y="832"/>
      <point x="40" y="829" type="curve"/>
      <point x="40" y="767" type="line"/>
      <point x="46" y="764"/>
      <point x="52" y="763"/>
      <point x="59" y="763" type="curve" smooth="yes"/>
      <point x="65" y="763"/>
      <point x="71" y="764"/>
    </contour>
  </outline>
</glyph>
<glyph name="AE" format="1">
  <advance width="175"/>
  <unicode hex="00C6"/>
  <outline>
    <contour>
      <point x="159" y="11" type="line"/>
      <point x="146" y="0"/>
      <point x="132" y="-4"/>
      <point x="116" y="-4" type="curve" smooth="yes"/>
      <point x="101" y="-4"/>
      <point x="86" y="0"/>
      <point x="74" y="11" type="curve"/>
      <point x="74" y="357" type="line"/>
      <point x="44" y="357" type="line"/>
      <point x="44" y="0" type="line"/>
      <point x="16" y="0" type="line"/>
      <point x="16" y="709" type="line"/>
      <point x="29" y="720"/>
      <point x="43" y="724"/>
      <point x="59" y="724" type="curve" smooth="yes"/>
      <point x="69" y="724"/>
      <point x="78" y="722"/>
      <point x="87" y="718" type="curve"/>
      <point x="96" y="722"/>
      <point x="106" y="724"/>
      <point x="116" y="724" type="curve" smooth="yes"/>
      <point x="132" y="724"/>
      <point x="146" y="720"/>
      <point x="159" y="709" type="curve"/>
      <point x="159" y="447" type="line"/>
      <point x="131" y="447" type="line"/>
      <point x="131" y="696" type="line"/>
      <point x="127" y="699"/>
      <point x="122" y="700"/>
      <point x="116" y="700" type="curve" smooth="yes"/>
      <point x="111" y="700"/>
      <point x="106" y="699"/>
      <point x="101" y="696" type="curve"/>
      <point x="101" y="384" type="line"/>
      <point x="144" y="384" type="line"/>
      <point x="144" y="357" type="line"/>
      <point x="101" y="357" type="line"/>
      <point x="101" y="24" type="line"/>
      <point x="105" y="21"/>
      <point x="111" y="20"/>
      <point x="116" y="20" type="curve" smooth="yes"/>
      <point x="122" y="20"/>
      <point x="127" y="21"/>
      <point x="131" y="24" type="curve"/>
      <point x="131" y="273" type="line"/>
      <point x="159" y="273" type="line"/>
    </contour>
    <contour>
      <point x="74" y="384" type="line"/>
      <point x="74" y="696" type="line"/>
      <point x="69" y="699"/>
      <point x="64" y="700"/>
      <point x="59" y="700" type="curve" smooth="yes"/>
      <point x="53" y="700"/>
      <point x="48" y="699"/>
      <point x="44" y="696" type="curve"/>
      <point x="44" y="384" type="line"/>
    </contour>
  </outline>
</glyph>
<glyph name="Ccedilla" format="1">
  <advance width="117"/>
  <unicode hex="00C7"/>
  <outline>
    <contour>
      <point x="101" y="11" type="line"/>
      <point x="93" y="4"/>
      <point x="83" y="0"/>
      <point x="73" y="-3" type="curve"/>
      <point x="73" y="-53" type="line"/>
      <point x="63" y="-65"/>
      <point x="48" y="-70"/>
      <point x="32" y="-70" type="curve" smooth="yes"/>
      <point x="25" y="-70" type="line"/>
      <point x="25" y="-45" type="line"/>
      <point x="28" y="-45" type="line" smooth="yes"/>
      <point x="35" y="-45"/>
      <point x="40" y="-43"/>
      <point x="45" y="-38" type="curve"/>
      <point x="45" y="-3" type="line"/>
      <point x="35" y="0"/>
      <point x="25" y="4"/>
      <point x="16" y="11" type="curve"/>
      <point x="16" y="709" type="line"/>
      <point x="29" y="720"/>
      <point x="43" y="724"/>
      <point x="59" y="724" type="curve" smooth="yes"/>
      <point x="74" y="724"/>
      <point x="89" y="720"/>
      <point x="101" y="709" type="curve"/>
      <point x="101" y="447" type="line"/>
      <point x="74" y="447" type="line"/>
      <point x="74" y="696" type="line"/>
      <point x="69" y="699"/>
      <point x="64" y="700"/>
      <point x="59" y="700" type="curve" smooth="yes"/>
      <point x="53" y="700"/>
      <point x="48" y="699"/>
      <point x="44" y="696" type="curve"/>
      <point x="44" y="24" type="line"/>
      <point x="48" y="21"/>
      <point x="53" y="20"/>
      <point x="59" y="20" type="curve" smooth="yes"/>
      <point x="64" y="20"/>
      <point x="69" y="21"/>
      <point x="74" y="24" type="curve"/>
      <point x="74" y="273" type="line"/>
      <point x="101" y="273" type="line"/>
    </contour>
  </outline>
</glyph>
<glyph name="Eth" format="1">
  <advance width="117"/>
  <unicode hex="00D0"/>
  <outline>
    <contour>
      <point x="101" y="25" type="line"/>
      <point x="88" y="7"/>
      <point x="70" y="0"/>
      <point x="49" y="0" type="curve" smooth="yes"/>
      <point x="16" y="0" type="line"/>
      <point x="16" y="357" type="line"/>
      <point x="3" y="357" type="line"/>
      <point x="3" y="384" type="line"/>
      <point x="16" y="384" type="line"/>
      <point x="16" y="720" type="line"/>
      <point x="49" y="720" type="line" smooth="yes"/>
      <point x="70" y="720"/>
      <point x="88" y="713"/>
      <point x="101" y="695" type="curve"/>
    </contour>
    <contour>
      <point x="74" y="35" type="curve"/>
      <point x="74" y="685" type="line"/>
      <point x="69" y="692"/>
      <point x="59" y="696"/>
      <point x="48" y="696" type="curve" smooth="yes"/>
      <point x="44" y="696" type="line"/>
      <point x="44" y="384" type="line"/>
      <point x="56" y="384" type="line"/>
      <point x="56" y="357" type="line"/>
      <point x="44" y="357" type="line"/>
      <point x="44" y="24" type="line"/>
      <point x="48" y="24" type="line" smooth="yes"/>
      <point x="59" y="24"/>
      <point x="69" y="28"/>
    </contour>
  </outline>
</glyph>
<glyph name="Oslash" format="1">
  <advance width="117"/>
  <unicode hex="00D8"/>
  <outline>
    <contour>
      <point x="101" y="11" type="line"/>
      <point x="89" y="0"/>
      <point x="74" y="-4"/>
      <point x="59" y="-4" type="curve" smooth="yes"/>
      <point x="57" y="-4"/>
      <point x="56" y="-4"/>
      <point x="54" y="-4" type="curve"/>
      <point x="50" y="-65" type="line"/>
      <point x="25" y="-65" type="line"/>
      <point x="30" y="3" type="line"/>
      <point x="25" y="5"/>
      <point x="20" y="7"/>
      <point x="16" y="11" type="curve"/>
      <point x="16" y="709" type="line"/>
      <point x="29" y="720"/>
      <point x="43" y="724"/>
      <point x="59" y="724" type="curve" smooth="yes"/>
      <point x="60" y="724"/>
      <point x="62" y="724"/>
      <point x="63" y="724" type="curve"/>
      <point x="68" y="785" type="line"/>
      <point x="93" y="785" type="line"/>
      <point x="87" y="718" type="line"/>
      <point x="92" y="716"/>
      <point x="97" y="713"/>
      <point x="101" y="709" type="curve"/>
    </contour>
    <contour>
      <point x="74" y="24" type="curve"/>
      <point x="74" y="696" type="line"/>
      <point x="69" y="699"/>
      <point x="64" y="700"/>
      <point x="59" y="700" type="curve" smooth="yes"/>
      <point x="53" y="700"/>
      <point x="48" y="699"/>
      <point x="44" y="696" type="curve"/>
      <point x="44" y="24" type="line"/>
      <point x="48" y="21"/>
      <point x="53" y="20"/>
      <point x="59" y="20" type="curve" smooth="yes"/>
      <point x="64" y="20"/>
      <point x="69" y="21"/>
    </contour>
  </outline>
</glyph>
<glyph name="Thorn" format="1">
  <advance width="115"/>
  <unicode hex="00DE"/>
  <outline>
    <contour>
      <point x="101" y="181" type="line"/>
      <point x="88" y="162"/>
      <point x="70" y="155"/>
      <point x="49" y="155" type="curve" smooth="yes"/>
      <point x="44" y="155" type="line"/>
      <point x="44" y="0" type="line"/>
      <point x="16" y="0" type="line"/>
      <point x="16" y="720" type="line"/>
      <point x="44" y="720" type="line"/>
      <point x="44" y="583" type="line"/>
      <point x="49" y="583" type="line" smooth="yes"/>
      <point x="70" y="583"/>
      <point x="88" y="576"/>
      <point x="101" y="558" type="curve"/>
    </contour>
    <contour>
      <point x="74" y="191" type="curve"/>
      <point x="74" y="548" type="line"/>
      <point x="69" y="555"/>
      <point x="59" y="559"/>
      <point x="48" y="559" type="curve" smooth="yes"/>
      <point x="44" y="559" type="line"/>
      <point x="44" y="179" type="line"/>
      <point x="48" y="179" type="line" smooth="yes"/>
      <point x="60" y="179"/>
      <point x="69" y="183"/>
    </contour>
  </outline>
</glyph>
<glyph name="germandbls" format="1">
  <advance width="115"/>
  <unicode hex="00DF"/>
  <outline>
    <contour>
      <point x="100" y="14" type="line"/>
      <point x="90" y="5"/>
      <point x="74" y="0"/>
      <point x="57" y="0" type="curve"/>
      <point x="57" y="25" type="line"/>
      <point x="62" y="25"/>
      <point x="69" y="26"/>
      <point x="72" y="29" type="curve"/>
      <point x="72" y="345" type="line"/>
      <point x="66" y="355"/>
      <point x="55" y="359"/>
      <point x="45" y="359" type="curve" smooth="yes"/>
      <point x="43" y="359" type="line"/>
      <point x="43" y="0" type="line"/>
      <point x="15" y="0" type="line"/>
      <point x="15" y="709" type="line"/>
      <point x="28" y="720"/>
      <point x="43" y="724"/>
      <point x="58" y="724" type="curve" smooth="yes"/>
      <point x="72" y="724"/>
      <point x="87" y="720"/>
      <point x="99" y="709" type="curve"/>
      <point x="99" y="391" type="line"/>
      <point x="93" y="382"/>
      <point x="83" y="375"/>
      <point x="72" y="371" type="curve"/>
      <point x="83" y="367"/>
      <point x="93" y="360"/>
      <point x="100" y="351" type="curve"/>
    </contour>
    <contour>
      <point x="72" y="396" type="curve"/>
      <point x="72" y="696" type="line"/>
      <point x="67" y="699"/>
      <point x="63" y="700"/>
      <point x="58" y="700" type="curve" smooth="yes"/>
      <point x="52" y="700"/>
      <point x="48" y="699"/>
      <point x="43" y="696" type="curve"/>
      <point x="43" y="383" type="line"/>
      <point x="45" y="383" type="line" smooth="yes"/>
      <point x="55" y="383"/>
      <point x="65" y="387"/>
    </contour>
  </outline>
</glyph>
<glyph name="ae" format="1">
  <advance width="172"/>
  <unicode hex="00E6"/>
  <outline>
    <contour>
      <point x="156" y="11" type="line"/>
      <point x="144" y="0"/>
      <point x="129" y="-4"/>
      <point x="114" y="-4" type="curve" smooth="yes"/>
      <point x="105" y="-4"/>
      <point x="95" y="-2"/>
      <point x="86" y="2" type="curve"/>
      <point x="77" y="-2"/>
      <point x="67" y="-4"/>
      <point x="58" y="-4" type="curve" smooth="yes"/>
      <point x="43" y="-4"/>
      <point x="28" y="0"/>
      <point x="15" y="11" type="curve"/>
      <point x="15" y="289" type="line"/>
      <point x="26" y="298"/>
      <point x="37" y="302"/>
      <point x="51" y="302" type="curve" smooth="yes"/>
      <point x="59" y="302"/>
      <point x="66" y="301"/>
      <point x="72" y="298" type="curve"/>
      <point x="72" y="456" type="line"/>
      <point x="68" y="459"/>
      <point x="63" y="460"/>
      <point x="58" y="460" type="curve" smooth="yes"/>
      <point x="52" y="460"/>
      <point x="48" y="459"/>
      <point x="43" y="456" type="curve"/>
      <point x="43" y="354" type="line"/>
      <point x="15" y="354" type="line"/>
      <point x="15" y="469" type="line"/>
      <point x="28" y="480"/>
      <point x="43" y="484"/>
      <point x="58" y="484" type="curve" smooth="yes"/>
      <point x="67" y="484"/>
      <point x="77" y="482"/>
      <point x="86" y="478" type="curve"/>
      <point x="95" y="482"/>
      <point x="105" y="484"/>
      <point x="114" y="484" type="curve" smooth="yes"/>
      <point x="129" y="484"/>
      <point x="144" y="480"/>
      <point x="156" y="469" type="curve"/>
      <point x="156" y="238" type="line"/>
      <point x="100" y="238" type="line"/>
      <point x="100" y="24" type="line"/>
      <point x="104" y="21"/>
      <point x="109" y="20"/>
      <point x="114" y="20" type="curve" smooth="yes"/>
      <point x="120" y="20"/>
      <point x="124" y="21"/>
      <point x="129" y="24" type="curve"/>
      <point x="129" y="170" type="line"/>
      <point x="156" y="170" type="line"/>
    </contour>
    <contour>
      <point x="129" y="262" type="line"/>
      <point x="129" y="456" type="line"/>
      <point x="124" y="459"/>
      <point x="120" y="460"/>
      <point x="114" y="460" type="curve" smooth="yes"/>
      <point x="109" y="460"/>
      <point x="104" y="459"/>
      <point x="100" y="456" type="curve"/>
      <point x="100" y="262" type="line"/>
    </contour>
    <contour>
      <point x="72" y="24" type="curve"/>
      <point x="72" y="274" type="line"/>
      <point x="68" y="277"/>
      <point x="63" y="278"/>
      <point x="58" y="278" type="curve" smooth="yes"/>
      <point x="52" y="278"/>
      <point x="48" y="277"/>
      <point x="43" y="274" type="curve"/>
      <point x="43" y="24" type="line"/>
      <point x="48" y="21"/>
      <point x="52" y="20"/>
      <point x="58" y="20" type="curve" smooth="yes"/>
      <point x="63" y="20"/>
      <point x="68" y="21"/>
    </contour>
  </outline>
</glyph>
<glyph name="ccedilla" format="1">
  <advance width="115"/>
  <unicode hex="00E7"/>
  <outline>
    <contour>
      <point x="100" y="11" type="line"/>
      <point x="91" y="3"/>
      <point x="81" y="0"/>
      <point x="71" y="-3" type="curve"/>
      <point x="71" y="-53" type="line"/>
      <point x="61" y="-65"/>
      <point x="48" y="-70"/>
      <point x="32" y="-70" type="curve" smooth="yes"/>
      <point x="25" y="-70" type="line"/>
      <point x="25" y="-45" type="line"/>
      <point x="28" y="-45" type="line" smooth="yes"/>
      <point x="35" y="-45"/>
      <point x="40" y="-43"/>
      <point x="45" y="-38" type="curve"/>
      <point x="45" y="-3" type="line"/>
      <point x="35" y="-1"/>
      <point x="25" y="3"/>
      <point x="15" y="11" type="curve"/>
      <point x="15" y="469" type="line"/>
      <point x="28" y="480"/>
      <point x="43" y="484"/>
      <point x="58" y="484" type="curve" smooth="yes"/>
      <point x="72" y="484"/>
      <point x="87" y="480"/>
      <point x="100" y="469" type="curve"/>
      <point x="100" y="310" type="line"/>
      <point x="72" y="310" type="line"/>
      <point x="72" y="456" type="line"/>
      <point x="68" y="459"/>
      <point x="63" y="460"/>
      <point x="58" y="460" type="curve" smooth="yes"/>
      <point x="52" y="460"/>
      <point x="48" y="459"/>
      <point x="43" y="456" type="curve"/>
      <point x="43" y="24" type="line"/>
      <point x="48" y="21"/>
      <point x="52" y="20"/>
      <point x="58" y="20" type="curve" smooth="yes"/>
      <point x="63" y="20"/>
      <point x="68" y="21"/>
      <point x="72" y="24" type="curve"/>
      <point x="72" y="170" type="line"/>
      <point x="100" y="170" type="line"/>
    </contour>
  </outline>
</glyph>
<glyph name="eth" format="1">
  <advance width="115"/>
  <unicode hex="00F0"/>
  <outline>
    <contour>
      <point x="100" y="11" type="line"/>
      <point x="87" y="0"/>
      <point x="72" y="-4"/>
      <point x="58" y="-4" type="curve" smooth="yes"/>
      <point x="43" y="-4"/>
      <point x="28" y="0"/>
      <point x="15" y="11" type="curve"/>
      <point x="15" y="470" type="line"/>
      <point x="26" y="480"/>
      <point x="37" y="484"/>
      <point x="51" y="484" type="curve" smooth="yes"/>
      <point x="59" y="484"/>
      <point x="66" y="482"/>
      <point x="72" y="480" type="curve"/>
      <point x="72" y="609" type="line"/>
      <point x="36" y="609" type="line"/>
      <point x="36" y="635" type="line"/>
      <point x="72" y="635" type="line"/>
      <point x="72" y="720" type="line"/>
      <point x="100" y="720" type="line"/>
      <point x="100" y="635" type="line"/>
      <point x="100" y="635" type="line"/>
      <point x="100" y="609" type="line"/>
      <point x="100" y="609" type="line"/>
    </contour>
    <contour>
      <point x="72" y="24" type="curve"/>
      <point x="72" y="456" type="line"/>
      <point x="68" y="459"/>
      <point x="63" y="460"/>
      <point x="58" y="460" type="curve" smooth="yes"/>
      <point x="52" y="460"/>
      <point x="48" y="459"/>
      <point x="43" y="456" type="curve"/>
      <point x="43" y="24" type="line"/>
      <point x="48" y="21"/>
      <point x="52" y="20"/>
      <point x="58" y="20" type="curve" smooth="yes"/>
      <point x="63" y="20"/>
      <point x="68" y="21"/>
    </contour>
  </outline>
</glyph>
<glyph name="oslash" format="1">
  <advance width="115"/>
  <unicode hex="00F8"/>
  <outline>
    <contour>
      <point x="100" y="11" type="line"/>
      <point x="87" y="0"/>
      <point x="72" y="-4"/>
      <point x="58" y="-4" type="curve" smooth="yes"/>
      <point x="57" y="-4"/>
      <point x="57" y="-4"/>
      <point x="56" y="-4" type="curve"/>
      <point x="51" y="-65" type="line"/>
      <point x="26" y="-65" type="line"/>
      <point x="31" y="2" type="line"/>
      <point x="26" y="4"/>
      <point x="20" y="7"/>
      <point x="15" y="11" type="curve"/>
      <point x="15" y="469" type="line"/>
      <point x="28" y="480"/>
      <point x="43" y="484"/>
      <point x="58" y="484" type="curve" smooth="yes"/>
      <point x="58" y="484"/>
      <point x="59" y="484"/>
      <point x="60" y="484" type="curve"/>
      <point x="64" y="543" type="line"/>
      <point x="89" y="543" type="line"/>
      <point x="84" y="478" type="line"/>
      <point x="89" y="476"/>
      <point x="95" y="473"/>
      <point x="100" y="469" type="curve"/>
    </contour>
    <contour>
      <point x="72" y="24" type="curve"/>
      <point x="72" y="456" type="line"/>
      <point x="68" y="459"/>
      <point x="63" y="460"/>
      <point x="58" y="460" type="curve" smooth="yes"/>
      <point x="52" y="460"/>
      <point x="48" y="459"/>
      <point x="43" y="456" type="curve"/>
      <point x="43" y="24" type="line"/>
      <point x="48" y="21"/>
      <point x="52" y="20"/>
      <point x="58" y="20" type="curve" smooth="yes"/>
      <point x="63" y="20"/>
      <point x="68" y="21"/>
    </contour>
  </outline>
</glyph>
<glyph name="dotlessi" format="1">
  <advance width="59"/>
  <unicode hex="0131"/>
  <outline>
    <contour>
      <point x="44" y="0" type="line"/>
      <point x="16" y="0" type="line"/>
      <point x="16" y="480" type="line"/>
      <point x="44" y="480" type="line"/>
    </contour>
  </outline>
</glyph>
<glyph name="Lslash" format="1">
  <advance width="92"/>
  <unicode hex="0141"/>
  <outline>
    <contour>
      <point x="85" y="0" type="line"/>
      <point x="21" y="0" type="line"/>
      <point x="21" y="342" type="line"/>
      <point x="3" y="333" type="line"/>
      <point x="3" y="364" type="line"/>
      <point x="21" y="373" type="line"/>
      <point x="21" y="720" type="line"/>
      <point x="49" y="720" type="line"/>
      <point x="49" y="386" type="line"/>
      <point x="71" y="398" type="line"/>
      <point x="71" y="368" type="line"/>
      <point x="49" y="356" type="line"/>
      <point x="49" y="24" type="line"/>
      <point x="85" y="24" type="line"/>
    </contour>
  </outline>
</glyph>
<glyph name="lslash" format="1">
  <advance width="69"/>
  <unicode hex="0142"/>
  <outline>
    <contour>
      <point x="66" y="365" type="line"/>
      <point x="49" y="356" type="line"/>
      <point x="49" y="0" type="line"/>
      <point x="21" y="0" type="line"/>
      <point x="21" y="342" type="line"/>
      <point x="3" y="333" type="line"/>
      <point x="3" y="364" type="line"/>
      <point x="21" y="373" type="line"/>
      <point x="21" y="720" type="line"/>
      <point x="49" y="720" type="line"/>
      <point x="49" y="386" type="line"/>
      <point x="66" y="395" type="line"/>
    </contour>
  </outline>
</glyph>
<glyph name="florin" format="1">
  <advance width="85"/>
  <unicode hex="0192"/>
  <outline>
    <contour>
      <point x="79" y="697" type="line"/>
      <point x="68" y="697" type="line" smooth="yes"/>
      <point x="60" y="697"/>
      <point x="50" y="695"/>
      <point x="43" y="689" type="curve"/>
      <point x="43" y="480" type="line"/>
      <point x="76" y="480" type="line"/>
      <point x="76" y="454" type="line"/>
      <point x="43" y="454" type="line"/>
      <point x="43" y="-156" type="line"/>
      <point x="34" y="-169"/>
      <point x="16" y="-178"/>
      <point x="-6" y="-178" type="curve" smooth="yes"/>
      <point x="-20" y="-178" type="line"/>
      <point x="-20" y="-152" type="line"/>
      <point x="-10" y="-152" type="line" smooth="yes"/>
      <point x="-2" y="-152"/>
      <point x="8" y="-150"/>
      <point x="15" y="-144" type="curve"/>
      <point x="15" y="454" type="line"/>
      <point x="15" y="454" type="line"/>
      <point x="15" y="480" type="line"/>
      <point x="15" y="480" type="line"/>
      <point x="15" y="701" type="line"/>
      <point x="25" y="714"/>
      <point x="43" y="723"/>
      <point x="65" y="723" type="curve" smooth="yes"/>
      <point x="79" y="723" type="line"/>
    </contour>
  </outline>
</glyph>
<glyph name="circumflex" format="1">
  <advance width="115"/>
  <unicode hex="02C6"/>
  <outline>
    <contour>
      <point x="99" y="515" type="line"/>
      <point x="73" y="515" type="line"/>
      <point x="57" y="594" type="line"/>
      <point x="41" y="515" type="line"/>
      <point x="15" y="515" type="line"/>
      <point x="42" y="625" type="line"/>
      <point x="73" y="625" type="line"/>
    </contour>
  </outline>
</glyph>
<glyph name="caron" format="1">
  <advance width="115"/>
  <unicode hex="02C7"/>
  <outline>
    <contour>
      <point x="99" y="625" type="line"/>
      <point x="73" y="515" type="line"/>
      <point x="42" y="515" type="line"/>
      <point x="15" y="625" type="line"/>
      <point x="41" y="625" type="line"/>
      <point x="57" y="546" type="line"/>
      <point x="73" y="625" type="line"/>
    </contour>
  </outline>
</glyph>
<glyph name="breve" format="1">
  <advance width="115"/>
  <unicode hex="02D8"/>
  <outline>
    <contour>
      <point x="100" y="529" type="line"/>
      <point x="87" y="519"/>
      <point x="72" y="515"/>
      <point x="58" y="515" type="curve" smooth="yes"/>
      <point x="43" y="515"/>
      <point x="28" y="519"/>
      <point x="15" y="529" type="curve"/>
      <point x="15" y="625" type="line"/>
      <point x="43" y="625" type="line"/>
      <point x="43" y="543" type="line"/>
      <point x="48" y="540"/>
      <point x="52" y="539"/>
      <point x="58" y="539" type="curve" smooth="yes"/>
      <point x="63" y="539"/>
      <point x="68" y="540"/>
      <point x="72" y="543" type="curve"/>
      <point x="72" y="625" type="line"/>
      <point x="100" y="625" type="line"/>
    </contour>
  </outline>
</glyph>
<glyph name="dotaccent" format="1">
  <advance width="115"/>
  <unicode hex="02D9"/>
  <outline>
    <contour>
      <point x="70" y="515" type="line"/>
      <point x="44" y="515" type="line"/>
      <point x="44" y="625" type="line"/>
      <point x="70" y="625" type="line"/>
    </contour>
  </outline>
</glyph>
<glyph name="ring" format="1">
  <advance width="115"/>
  <unicode hex="02DA"/>
  <outline>
    <contour>
      <point x="100" y="529" type="line"/>
      <point x="87" y="519"/>
      <point x="72" y="515"/>
      <point x="58" y="515" type="curve" smooth="yes"/>
      <point x="43" y="515"/>
      <point x="28" y="519"/>
      <point x="15" y="529" type="curve"/>
      <point x="15" y="611" type="line"/>
      <point x="28" y="621"/>
      <point x="43" y="625"/>
      <point x="58" y="625" type="curve" smooth="yes"/>
      <point x="72" y="625"/>
      <point x="87" y="621"/>
      <point x="100" y="611" type="curve"/>
    </contour>
    <contour>
      <point x="76" y="539" type="curve"/>
      <point x="76" y="601" type="line"/>
      <point x="70" y="604"/>
      <point x="64" y="605"/>
      <point x="58" y="605" type="curve" smooth="yes"/>
      <point x="51" y="605"/>
      <point x="45" y="604"/>
      <point x="39" y="601" type="curve"/>
      <point x="39" y="539" type="line"/>
      <point x="45" y="536"/>
      <point x="51" y="535"/>
      <point x="58" y="535" type="curve" smooth="yes"/>
      <point x="64" y="535"/>
      <point x="70" y="536"/>
    </contour>
  </outline>
</glyph>
<glyph name="ogonek" format="1">
  <advance width="115"/>
  <unicode hex="02DB"/>
  <outline>
    <contour>
      <point x="90" y="-70" type="line"/>
      <point x="84" y="-70" type="line" smooth="yes"/>
      <point x="68" y="-70"/>
      <point x="54" y="-65"/>
      <point x="45" y="-53" type="curve"/>
      <point x="45" y="8" type="line"/>
      <point x="70" y="8" type="line"/>
      <point x="70" y="-38" type="line"/>
      <point x="75" y="-43"/>
      <point x="81" y="-45"/>
      <point x="87" y="-45" type="curve" smooth="yes"/>
      <point x="90" y="-45" type="line"/>
    </contour>
  </outline>
</glyph>
<glyph name="tilde" format="1">
  <advance width="115"/>
  <unicode hex="02DC"/>
  <outline>
    <contour>
      <point x="99" y="515" type="line"/>
      <point x="77" y="515" type="line"/>
      <point x="38" y="585" type="line"/>
      <point x="38" y="515" type="line"/>
      <point x="16" y="515" type="line"/>
      <point x="16" y="625" type="line"/>
      <point x="38" y="625" type="line"/>
      <point x="77" y="555" type="line"/>
      <point x="77" y="625" type="line"/>
      <point x="99" y="625" type="line"/>
    </contour>
  </outline>
</glyph>
<glyph name="hungarumlaut" format="1">
  <advance width="115"/>
  <unicode hex="02DD"/>
  <outline>
    <contour>
      <point x="115" y="625" type="line"/>
      <point x="78" y="515" type="line"/>
      <point x="51" y="515" type="line"/>
      <point x="86" y="625" type="line"/>
    </contour>
    <contour>
      <point x="64" y="625" type="line"/>
      <point x="27" y="515" type="line"/>
      <point x="0" y="515" type="line"/>
      <point x="35" y="625" type="line"/>
    </contour>
  </outline>
</glyph>
<glyph name="endash" format="1">
  <advance width="112"/>
  <unicode hex="2013"/>
  <outline>
    <contour>
      <point x="105" y="306" type="line"/>
      <point x="6" y="306" type="line"/>
      <point x="6" y="332" type="line"/>
      <point x="105" y="332" type="line"/>
    </contour>
  </outline>
</glyph>
<glyph name="emdash" format="1">
  <advance width="162"/>
  <unicode hex="2014"/>
  <outline>
    <contour>
      <point x="155" y="306" type="line"/>
      <point x="6" y="306" type="line"/>
      <point x="6" y="332" type="line"/>
      <point x="155" y="332" type="line"/>
    </contour>
  </outline>
</glyph>
<glyph name="quoteleft" format="1">
  <advance width="59"/>
  <unicode hex="2018"/>
  <unicode hex="02BB"/>
  <outline>
    <contour>
      <point x="51" y="487" type="line"/>
      <point x="22" y="487" type="line"/>
      <point x="8" y="720" type="line"/>
      <point x="37" y="720" type="line"/>
    </contour>
  </outline>
</glyph>
<glyph name="quoteright" format="1">
  <advance width="59"/>
  <unicode hex="2019"/>
  <unicode hex="02BC"/>
  <outline>
    <contour>
      <point x="51" y="720" type="line"/>
      <point x="37" y="487" type="line"/>
      <point x="8" y="487" type="line"/>
      <point x="22" y="720" type="line"/>
    </contour>
  </outline>
</glyph>
<glyph name="quotesinglbase" format="1">
  <advance width="59"/>
  <unicode hex="201A"/>
  <outline>
    <contour>
      <point x="47" y="119" type="line"/>
      <point x="33" y="-113" type="line"/>
      <point x="4" y="-113" type="line"/>
      <point x="19" y="119" type="line"/>
    </contour>
  </outline>
</glyph>
<glyph name="quotedblleft" format="1">
  <advance width="113"/>
  <unicode hex="201C"/>
  <outline>
    <contour>
      <point x="105" y="487" type="line"/>
      <point x="77" y="487" type="line"/>
      <point x="63" y="720" type="line"/>
      <point x="91" y="720" type="line"/>
    </contour>
    <contour>
      <point x="51" y="487" type="line"/>
      <point x="22" y="487" type="line"/>
      <point x="8" y="720" type="line"/>
      <point x="37" y="720" type="line"/>
    </contour>
  </outline>
</glyph>
<glyph name="quotedblright" format="1">
  <advance width="113"/>
  <unicode hex="201D"/>
  <outline>
    <contour>
      <point x="105" y="720" type="line"/>
      <point x="91" y="487" type="line"/>
      <point x="63" y="487" type="line"/>
      <point x="77" y="720" type="line"/>
    </contour>
    <contour>
      <point x="51" y="720" type="line"/>
      <point x="37" y="487" type="line"/>
      <point x="8" y="487" type="line"/>
      <point x="22" y="720" type="line"/>
    </contour>
  </outline>
</glyph>
<glyph name="quotedblbase" format="1">
  <advance width="113"/>
  <unicode hex="201E"/>
  <outline>
    <contour>
      <point x="102" y="119" type="line"/>
      <point x="88" y="-113" type="line"/>
      <point x="59" y="-113" type="line"/>
      <point x="73" y="119" type="line"/>
    </contour>
    <contour>
      <point x="47" y="119" type="line"/>
      <point x="33" y="-113" type="line"/>
      <point x="4" y="-113" type="line"/>
      <point x="19" y="119" type="line"/>
    </contour>
  </outline>
</glyph>
<glyph name="dagger" format="1">
  <advance width="89"/>
  <unicode hex="2020"/>
  <outline>
    <contour>
      <point x="86" y="454" type="line"/>
      <point x="58" y="454" type="line"/>
      <point x="58" y="0" type="line"/>
      <point x="31" y="0" type="line"/>
      <point x="31" y="454" type="line"/>
      <point x="3" y="454" type="line"/>
      <point x="3" y="480" type="line"/>
      <point x="31" y="480" type="line"/>
      <point x="31" y="720" type="line"/>
      <point x="58" y="720" type="line"/>
      <point x="58" y="480" type="line"/>
      <point x="86" y="480" type="line"/>
    </contour>
  </outline>
</glyph>
<glyph name="daggerdbl" format="1">
  <advance width="89"/>
  <unicode hex="2021"/>
  <outline>
    <contour>
      <point x="86" y="267" type="line"/>
      <point x="58" y="267" type="line"/>
      <point x="58" y="0" type="line"/>
      <point x="31" y="0" type="line"/>
      <point x="31" y="267" type="line"/>
      <point x="3" y="267" type="line"/>
      <point x="3" y="293" type="line"/>
      <point x="31" y="293" type="line"/>
      <point x="31" y="454" type="line"/>
      <point x="3" y="454" type="line"/>
      <point x="3" y="480" type="line"/>
      <point x="31" y="480" type="line"/>
      <point x="31" y="720" type="line"/>
      <point x="58" y="720" type="line"/>
      <point x="58" y="480" type="line"/>
      <point x="86" y="480" type="line"/>
      <point x="86" y="454" type="line"/>
      <point x="58" y="454" type="line"/>
      <point x="58" y="293" type="line"/>
      <point x="86" y="293" type="line"/>
    </contour>
  </outline>
</glyph>
<glyph name="bullet" format="1">
  <advance width="115"/>
  <unicode hex="2022"/>
  <outline>
    <contour>
      <point x="100" y="248" type="line"/>
      <point x="87" y="238"/>
      <point x="72" y="234"/>
      <point x="58" y="234" type="curve" smooth="yes"/>
      <point x="43" y="234"/>
      <point x="28" y="238"/>
      <point x="15" y="248" type="curve"/>
      <point x="15" y="498" type="line"/>
      <point x="28" y="509"/>
      <point x="43" y="512"/>
      <point x="58" y="512" type="curve" smooth="yes"/>
      <point x="72" y="512"/>
      <point x="87" y="509"/>
      <point x="100" y="498" type="curve"/>
    </contour>
  </outline>
</glyph>
<glyph name="ellipsis" format="1">
  <advance width="176"/>
  <unicode hex="2026"/>
  <outline>
    <contour>
      <point x="161" y="0" type="line"/>
      <point x="133" y="0" type="line"/>
      <point x="133" y="99" type="line"/>
      <point x="161" y="99" type="line"/>
    </contour>
    <contour>
      <point x="102" y="0" type="line"/>
      <point x="74" y="0" type="line"/>
      <point x="74" y="99" type="line"/>
      <point x="102" y="99" type="line"/>
    </contour>
    <contour>
      <point x="44" y="0" type="line"/>
      <point x="15" y="0" type="line"/>
      <point x="15" y="99" type="line"/>
      <point x="44" y="99" type="line"/>
    </contour>
  </outline>
</glyph>
<glyph name="perthousand" format="1">
  <advance width="352"/>
  <unicode hex="2030"/>
  <outline>
    <contour>
      <point x="97" y="353" type="line"/>
      <point x="85" y="342"/>
      <point x="71" y="339"/>
      <point x="56" y="339" type="curve" smooth="yes"/>
      <point x="41" y="339"/>
      <point x="27" y="342"/>
      <point x="15" y="353" type="curve"/>
      <point x="15" y="709" type="line"/>
      <point x="27" y="720"/>
      <point x="41" y="724"/>
      <point x="56" y="724" type="curve" smooth="yes"/>
      <point x="71" y="724"/>
      <point x="85" y="720"/>
      <point x="97" y="709" type="curve"/>
    </contour>
    <contour>
      <point x="165" y="720" type="line"/>
      <point x="110" y="0" type="line"/>
      <point x="86" y="0" type="line"/>
      <point x="141" y="720" type="line"/>
    </contour>
    <contour>
      <point x="338" y="11" type="line"/>
      <point x="326" y="0"/>
      <point x="312" y="-4"/>
      <point x="297" y="-4" type="curve" smooth="yes"/>
      <point x="282" y="-4"/>
      <point x="268" y="0"/>
      <point x="257" y="11" type="curve"/>
      <point x="257" y="367" type="line"/>
      <point x="268" y="378"/>
      <point x="282" y="381"/>
      <point x="297" y="381" type="curve" smooth="yes"/>
      <point x="312" y="381"/>
      <point x="326" y="378"/>
      <point x="338" y="367" type="curve"/>
    </contour>
    <contour>
      <point x="235" y="11" type="line"/>
      <point x="224" y="0"/>
      <point x="210" y="-4"/>
      <point x="195" y="-4" type="curve" smooth="yes"/>
      <point x="180" y="-4"/>
      <point x="166" y="0"/>
      <point x="154" y="11" type="curve"/>
      <point x="154" y="367" type="line"/>
      <point x="166" y="378"/>
      <point x="180" y="381"/>
      <point x="195" y="381" type="curve" smooth="yes"/>
      <point x="210" y="381"/>
      <point x="224" y="378"/>
      <point x="235" y="367" type="curve"/>
    </contour>
    <contour>
      <point x="71" y="366" type="curve"/>
      <point x="71" y="697" type="line"/>
      <point x="66" y="700"/>
      <point x="62" y="701"/>
      <point x="56" y="701" type="curve" smooth="yes"/>
      <point x="51" y="701"/>
      <point x="46" y="700"/>
      <point x="42" y="697" type="curve"/>
      <point x="42" y="366" type="line"/>
      <point x="46" y="363"/>
      <point x="51" y="362"/>
      <point x="56" y="362" type="curve" smooth="yes"/>
      <point x="62" y="362"/>
      <point x="66" y="363"/>
    </contour>
    <contour>
      <point x="312" y="23" type="curve"/>
      <point x="312" y="354" type="line"/>
      <point x="307" y="357"/>
      <point x="303" y="358"/>
      <point x="297" y="358" type="curve" smooth="yes"/>
      <point x="292" y="358"/>
      <point x="287" y="357"/>
      <point x="283" y="354" type="curve"/>
      <point x="283" y="23" type="line"/>
      <point x="287" y="20"/>
      <point x="292" y="19"/>
      <point x="297" y="19" type="curve" smooth="yes"/>
      <point x="303" y="19"/>
      <point x="307" y="20"/>
    </contour>
    <contour>
      <point x="209" y="23" type="curve"/>
      <point x="209" y="354" type="line"/>
      <point x="205" y="357"/>
      <point x="200" y="358"/>
      <point x="195" y="358" type="curve" smooth="yes"/>
      <point x="189" y="358"/>
      <point x="185" y="357"/>
      <point x="180" y="354" type="curve"/>
      <point x="180" y="23" type="line"/>
      <point x="185" y="20"/>
      <point x="189" y="19"/>
      <point x="195" y="19" type="curve" smooth="yes"/>
      <point x="200" y="19"/>
      <point x="205" y="20"/>
    </contour>
  </outline>
</glyph>
<glyph name="guilsinglleft" format="1">
  <advance width="74"/>
  <unicode hex="2039"/>
  <outline>
    <contour>
      <point x="66" y="64" type="line"/>
      <point x="5" y="221" type="line"/>
      <point x="5" y="259" type="line"/>
      <point x="66" y="416" type="line"/>
      <point x="66" y="360" type="line"/>
      <point x="23" y="240" type="line"/>
      <point x="66" y="121" type="line"/>
    </contour>
  </outline>
</glyph>
<glyph name="guilsinglright" format="1">
  <advance width="74"/>
  <unicode hex="203A"/>
  <outline>
    <contour>
      <point x="69" y="221" type="line"/>
      <point x="8" y="64" type="line"/>
      <point x="8" y="121" type="line"/>
      <point x="51" y="240" type="line"/>
      <point x="8" y="360" type="line"/>
      <point x="8" y="416" type="line"/>
      <point x="69" y="259" type="line"/>
    </contour>
  </outline>
</glyph>
<glyph name="fraction" format="1">
  <advance width="86"/>
  <unicode hex="2044"/>
  <unicode hex="2215"/>
  <outline>
    <contour>
      <point x="76" y="720" type="line"/>
      <point x="36" y="0" type="line"/>
      <point x="10" y="0" type="line"/>
      <point x="51" y="720" type="line"/>
    </contour>
  </outline>
</glyph>
<glyph name="uni2117" format="1">
  <advance width="237"/>
  <unicode hex="2117"/>
  <outline>
    <contour>
      <point x="221" y="28" type="line"/>
      <point x="192" y="5"/>
      <point x="158" y="-4"/>
      <point x="119" y="-4" type="curve" smooth="yes"/>
      <point x="80" y="-4"/>
      <point x="45" y="5"/>
      <point x="16" y="28" type="curve"/>
      <point x="16" y="692" type="line"/>
      <point x="45" y="715"/>
      <point x="80" y="724"/>
      <point x="119" y="724" type="curve" smooth="yes"/>
      <point x="158" y="724"/>
      <point x="192" y="715"/>
      <point x="221" y="692" type="curve"/>
    </contour>
    <contour>
      <point x="194" y="42" type="curve"/>
      <point x="194" y="678" type="line"/>
      <point x="169" y="693"/>
      <point x="146" y="698"/>
      <point x="119" y="698" type="curve" smooth="yes"/>
      <point x="92" y="698"/>
      <point x="68" y="693"/>
      <point x="44" y="678" type="curve"/>
      <point x="44" y="42" type="line"/>
      <point x="68" y="27"/>
      <point x="92" y="22"/>
      <point x="119" y="22" type="curve" smooth="yes"/>
      <point x="146" y="22"/>
      <point x="169" y="27"/>
    </contour>
    <contour>
      <point x="161" y="371" type="line"/>
      <point x="148" y="353"/>
      <point x="130" y="346"/>
      <point x="109" y="346" type="curve" smooth="yes"/>
      <point x="104" y="346" type="line"/>
      <point x="104" y="60" type="line"/>
      <point x="76" y="60" type="line"/>
      <point x="76" y="664" type="line"/>
      <point x="109" y="664" type="line" smooth="yes"/>
      <point x="130" y="664"/>
      <point x="148" y="657"/>
      <point x="161" y="639" type="curve"/>
    </contour>
    <contour>
      <point x="134" y="381" type="curve"/>
      <point x="134" y="629" type="line"/>
      <point x="129" y="636"/>
      <point x="119" y="640"/>
      <point x="108" y="640" type="curve" smooth="yes"/>
      <point x="104" y="640" type="line"/>
      <point x="104" y="370" type="line"/>
      <point x="108" y="370" type="line" smooth="yes"/>
      <point x="120" y="370"/>
      <point x="129" y="374"/>
    </contour>
  </outline>
</glyph>
<glyph name="trademark" format="1">
  <advance width="259"/>
  <unicode hex="2122"/>
  <outline>
    <contour>
      <point x="244" y="290" type="line"/>
      <point x="217" y="290" type="line"/>
      <point x="217" y="694" type="line"/>
      <point x="209" y="698"/>
      <point x="198" y="700"/>
      <point x="187" y="700" type="curve"/>
      <point x="187" y="290" type="line"/>
      <point x="159" y="290" type="line"/>
      <point x="159" y="700" type="line"/>
      <point x="148" y="700"/>
      <point x="137" y="698"/>
      <point x="129" y="694" type="curve"/>
      <point x="129" y="290" type="line"/>
      <point x="102" y="290" type="line"/>
      <point x="102" y="708" type="line"/>
      <point x="121" y="719"/>
      <point x="146" y="724"/>
      <point x="173" y="724" type="curve" smooth="yes"/>
      <point x="200" y="724"/>
      <point x="225" y="719"/>
      <point x="244" y="708" type="curve"/>
    </contour>
    <contour>
      <point x="86" y="696" type="line"/>
      <point x="59" y="696" type="line"/>
      <point x="59" y="290" type="line"/>
      <point x="32" y="290" type="line"/>
      <point x="32" y="696" type="line"/>
      <point x="5" y="696" type="line"/>
      <point x="5" y="720" type="line"/>
      <point x="86" y="720" type="line"/>
    </contour>
  </outline>
</glyph>
<glyph name="radical" format="1">
  <advance width="113"/>
  <unicode hex="221A"/>
  <outline>
    <contour>
      <point x="107" y="720" type="line"/>
      <point x="64" y="0" type="line"/>
      <point x="31" y="0" type="line"/>
      <point x="6" y="311" type="line"/>
      <point x="33" y="311" type="line"/>
      <point x="48" y="63" type="line"/>
      <point x="79" y="720" type="line"/>
    </contour>
  </outline>
</glyph>
<glyph name="apple" format="1">
  <advance width="117"/>
  <unicode hex="F8FF"/>
  <outline>
    <contour>
      <point x="101" y="447" type="line"/>
      <point x="74" y="447" type="line"/>
      <point x="74" y="696" type="line"/>
      <point x="69" y="699"/>
      <point x="64" y="700"/>
      <point x="59" y="700" type="curve" smooth="yes"/>
      <point x="53" y="700"/>
      <point x="48" y="699"/>
      <point x="44" y="696" type="curve"/>
      <point x="44" y="447" type="line"/>
      <point x="16" y="447" type="line"/>
      <point x="16" y="709" type="line"/>
      <point x="29" y="720"/>
      <point x="43" y="724"/>
      <point x="59" y="724" type="curve" smooth="yes"/>
      <point x="74" y="724"/>
      <point x="89" y="720"/>
      <point x="101" y="709" type="curve"/>
    </contour>
    <contour>
      <point x="101" y="349" type="line"/>
      <point x="70" y="349" type="line"/>
      <point x="70" y="296" type="line"/>
      <point x="48" y="296" type="line"/>
      <point x="48" y="349" type="line"/>
      <point x="16" y="349" type="line"/>
      <point x="16" y="371" type="line"/>
      <point x="48" y="371" type="line"/>
      <point x="48" y="424" type="line"/>
      <point x="70" y="424" type="line"/>
      <point x="70" y="371" type="line"/>
      <point x="101" y="371" type="line"/>
    </contour>
    <contour>
      <point x="101" y="11" type="line"/>
      <point x="89" y="0"/>
      <point x="74" y="-4"/>
      <point x="59" y="-4" type="curve" smooth="yes"/>
      <point x="43" y="-4"/>
      <point x="29" y="0"/>
      <point x="16" y="11" type="curve"/>
      <point x="16" y="273" type="line"/>
      <point x="44" y="273" type="line"/>
      <point x="44" y="24" type="line"/>
      <point x="48" y="21"/>
      <point x="53" y="20"/>
      <point x="59" y="20" type="curve" smooth="yes"/>
      <point x="64" y="20"/>
      <point x="69" y="21"/>
      <point x="74" y="24" type="curve"/>
      <point x="74" y="273" type="line"/>
      <point x="101" y="273" type="line"/>
    </contour>
  </outline>
</glyph>
<glyph name="fl" format="1">
  <advance width="141"/>
  <unicode hex="FB02"/>
  <outline>
    <contour>
      <point x="126" y="0" type="line"/>
      <point x="98" y="0" type="line"/>
      <point x="98" y="720" type="line"/>
      <point x="126" y="720" type="line"/>
    </contour>
    <contour>
      <point x="79" y="697" type="line"/>
      <point x="68" y="697" type="line" smooth="yes"/>
      <point x="60" y="697"/>
      <point x="50" y="695"/>
      <point x="43" y="689" type="curve"/>
      <point x="43" y="480" type="line"/>
      <point x="76" y="480" type="line"/>
      <point x="76" y="454" type="line"/>
      <point x="43" y="454" type="line"/>
      <point x="43" y="0" type="line"/>
      <point x="15" y="0" type="line"/>
      <point x="15" y="454" type="line"/>
      <point x="15" y="454" type="line"/>
      <point x="15" y="480" type="line"/>
      <point x="15" y="480" type="line"/>
      <point x="15" y="701" type="line"/>
      <point x="25" y="714"/>
      <point x="43" y="723"/>
      <point x="65" y="723" type="curve" smooth="yes"/>
      <point x="79" y="723" type="line"/>
    </contour>
  </outline>
</glyph>
<glyph name="registered" format="1">
  <advance width="237"/>
  <outline>
    <contour>
      <point x="221" y="28" type="line"/>
      <point x="192" y="5"/>
      <point x="158" y="-4"/>
      <point x="119" y="-4" type="curve" smooth="yes"/>
      <point x="80" y="-4"/>
      <point x="45" y="5"/>
      <point x="16" y="28" type="curve"/>
      <point x="16" y="692" type="line"/>
      <point x="45" y="715"/>
      <point x="80" y="724"/>
      <point x="119" y="724" type="curve" smooth="yes"/>
      <point x="158" y="724"/>
      <point x="192" y="715"/>
      <point x="221" y="692" type="curve"/>
    </contour>
    <contour>
      <point x="194" y="42" type="curve"/>
      <point x="194" y="678" type="line"/>
      <point x="169" y="693"/>
      <point x="146" y="698"/>
      <point x="119" y="698" type="curve" smooth="yes"/>
      <point x="92" y="698"/>
      <point x="68" y="693"/>
      <point x="44" y="678" type="curve"/>
      <point x="44" y="42" type="line"/>
      <point x="68" y="27"/>
      <point x="92" y="22"/>
      <point x="119" y="22" type="curve" smooth="yes"/>
      <point x="146" y="22"/>
      <point x="169" y="27"/>
    </contour>
    <contour>
      <point x="162" y="60" type="line"/>
      <point x="134" y="60" type="line"/>
      <point x="134" y="351" type="line"/>
      <point x="128" y="360"/>
      <point x="117" y="364"/>
      <point x="107" y="364" type="curve" smooth="yes"/>
      <point x="104" y="364" type="line"/>
      <point x="104" y="60" type="line"/>
      <point x="77" y="60" type="line"/>
      <point x="77" y="664" type="line"/>
      <point x="109" y="664" type="line" smooth="yes"/>
      <point x="130" y="664"/>
      <point x="148" y="658"/>
      <point x="161" y="640" type="curve"/>
      <point x="161" y="396" type="line"/>
      <point x="155" y="387"/>
      <point x="145" y="380"/>
      <point x="134" y="377" type="curve"/>
      <point x="145" y="373"/>
      <point x="155" y="366"/>
      <point x="162" y="357" type="curve"/>
    </contour>
    <contour>
      <point x="134" y="402" type="curve"/>
      <point x="134" y="630" type="line"/>
      <point x="129" y="637"/>
      <point x="119" y="640"/>
      <point x="109" y="640" type="curve" smooth="yes"/>
      <point x="104" y="640" type="line"/>
      <point x="104" y="388" type="line"/>
      <point x="107" y="388" type="line" smooth="yes"/>
      <point x="117" y="388"/>
      <point x="127" y="393"/>
    </contour>
  </outline>
</glyph>
